<?xml version="1.0" encoding="UTF-8"?>
<svg id="Layer_1" xmlns="http://www.w3.org/2000/svg" version="1.1" xmlns:xlink="http://www.w3.org/1999/xlink" viewBox="0 0 800 600">
  <!-- Generator: Adobe Illustrator 29.3.1, SVG Export Plug-In . SVG Version: 2.1.0 Build 151)  -->
  <defs>
    <style>
      .st0, .st1 {
        fill: #3c5189;
      }

      .st2 {
        fill: #4fb848;
      }

      .st3 {
        fill: #fffbfa;
      }

      .st4 {
        font-size: 9.1px;
      }

      .st4, .st5, .st6 {
        fill: #fff;
      }

      .st4, .st6, .st7, .st1 {
        font-family: Jalnan2-KSCpc-EUC-H, 'Jalnan 2';
      }

      .st8 {
        fill: #aadddf;
        opacity: .1;
      }

      .st9 {
        fill: #f9f5f4;
      }

      .st10 {
        fill: #debca3;
      }

      .st11, .st12, .st13, .st14 {
        fill: none;
      }

      .st15 {
        fill: #7288c4;
      }

      .st16, .st12, .st13 {
        stroke-miterlimit: 10;
      }

      .st16, .st12, .st13, .st14 {
        stroke: #231f20;
        stroke-width: 2.05px;
      }

      .st16, .st7 {
        fill: #231f20;
      }

      .st17 {
        fill: #ffede1;
      }

      .st6 {
        font-size: 14.6px;
        text-decoration: underline;
      }

      .st18 {
        fill: #f9bebf;
      }

      .st13, .st14 {
        stroke-linecap: round;
      }

      .st19 {
        fill: #4b68b1;
      }

      .st7 {
        font-size: 24.34px;
      }

      .st20 {
        fill: #47a447;
      }

      .st21 {
        fill: #4e7297;
      }

      .st14 {
        stroke-linejoin: round;
      }

      .st22 {
        fill: url(#New_Pattern_Swatch_1);
        opacity: .4;
      }

      .st23 {
        fill: #91694e;
      }

      .st1 {
        font-size: 30px;
      }

      .st24 {
        fill: #5672b7;
      }

      .st25 {
        clip-path: url(#clippath);
      }
    </style>
    <pattern id="New_Pattern_Swatch_1" data-name="New Pattern Swatch 1" x="0" y="0" width="232.31" height="346.92" patternTransform="translate(-1482.46 -1316.18) scale(.8)" patternUnits="userSpaceOnUse" viewBox="0 0 232.31 346.92">
      <g>
        <rect class="st11" width="232.31" height="346.92"/>
        <g>
          <path class="st2" d="M119.47,253.69l35.26,44.64s1.98-17.79-7.76-30.12c-9.74-12.33-27.5-14.52-27.5-14.52Z"/>
          <path class="st20" d="M127.23,283.81c9.74,12.33,27.5,14.52,27.5,14.52l-35.26-44.64s-1.98,17.79,7.76,30.12Z"/>
          <path class="st2" d="M190.44,276.01l-30.37,32.34s13.95-.52,22.34-9.45c8.39-8.93,8.03-22.88,8.03-22.88Z"/>
          <path class="st20" d="M168.11,285.46c-8.39,8.93-8.03,22.88-8.03,22.88l30.37-32.34s-13.95.52-22.34,9.45Z"/>
          <path class="st2" d="M184.89,324.06l-30.21-19.78s2.39,11.11,10.73,16.57c8.34,5.46,19.48,3.21,19.48,3.21Z"/>
          <path class="st20" d="M174.16,307.48c-8.34-5.46-19.48-3.21-19.48-3.21l30.21,19.78s-2.39-11.11-10.73-16.57Z"/>
          <circle class="st19" cx="154.13" cy="290.36" r="23.8"/>
          <path class="st15" d="M158.01,274.95s-4.23-2.73-6.51.25c0,0-2.06,2.09,0,6.26,0,0-3.2,2.89-1.81,5.98,0,0,1.2,3.06,6.04,2.11,0,0,1.67,3.87,4.92,3.62,0,0,3.35.28,4.06-4.87,0,0,4.42-.5,4.98-3.65,0,0,.96-3.71-3.38-5.38,0,0,.63-4.52-1.85-5.97,0,0-2.49-2.08-6.45,1.65Z"/>
          <path class="st0" d="M156.37,276.88l-2.95,3.14c-.93.99-1.12,2.46-.46,3.65l2.08,3.78c.65,1.19,2,1.82,3.33,1.57l4.24-.81c1.33-.25,2.35-1.34,2.52-2.68l.54-4.28c.17-1.35-.55-2.65-1.77-3.23l-3.9-1.84c-1.23-.58-2.69-.3-3.62.69Z"/>
          <circle class="st0" cx="142.44" cy="303.88" r="17.63"/>
          <path class="st24" d="M138.25,292.86s3.13-2.02,4.82.19c0,0,1.52,1.55,0,4.64,0,0,2.37,2.14,1.34,4.43,0,0-.89,2.27-4.47,1.57,0,0-1.24,2.86-3.65,2.68,0,0-2.48.21-3.01-3.61,0,0-3.28-.37-3.69-2.71,0,0-.71-2.75,2.5-3.98,0,0-.47-3.35,1.37-4.42,0,0,1.84-1.54,4.78,1.22Z"/>
          <path class="st0" d="M139.46,294.29l2.19,2.33c.69.73.83,1.83.34,2.71l-1.54,2.8c-.48.88-1.48,1.35-2.47,1.16l-3.14-.6c-.99-.19-1.74-.99-1.87-1.99l-.4-3.17c-.13-1,.4-1.96,1.31-2.39l2.89-1.36c.91-.43,1.99-.22,2.68.51Z"/>
        </g>
        <g>
          <path class="st2" d="M3.31,253.69l35.26,44.64s1.98-17.79-7.76-30.12c-9.74-12.33-27.5-14.52-27.5-14.52Z"/>
          <path class="st20" d="M11.07,283.81c9.74,12.33,27.5,14.52,27.5,14.52L3.31,253.69s-1.98,17.79,7.76,30.12Z"/>
          <path class="st2" d="M74.29,276.01l-30.37,32.34s13.95-.52,22.34-9.45c8.39-8.93,8.03-22.88,8.03-22.88Z"/>
          <path class="st20" d="M51.95,285.46c-8.39,8.93-8.03,22.88-8.03,22.88l30.37-32.34s-13.95.52-22.34,9.45Z"/>
          <path class="st2" d="M68.73,324.06l-30.21-19.78s2.39,11.11,10.73,16.57c8.34,5.46,19.48,3.21,19.48,3.21Z"/>
          <path class="st20" d="M58,307.48c-8.34-5.46-19.48-3.21-19.48-3.21l30.21,19.78s-2.39-11.11-10.73-16.57Z"/>
          <circle class="st19" cx="37.97" cy="290.36" r="23.8"/>
          <path class="st15" d="M41.85,274.95s-4.23-2.73-6.51.25c0,0-2.06,2.09,0,6.26,0,0-3.2,2.89-1.81,5.98,0,0,1.2,3.06,6.04,2.11,0,0,1.67,3.87,4.92,3.62,0,0,3.35.28,4.06-4.87,0,0,4.42-.5,4.98-3.65,0,0,.96-3.71-3.38-5.38,0,0,.63-4.52-1.85-5.97,0,0-2.49-2.08-6.45,1.65Z"/>
          <path class="st0" d="M40.21,276.88l-2.95,3.14c-.93.99-1.12,2.46-.46,3.65l2.08,3.78c.65,1.19,2,1.82,3.33,1.57l4.24-.81c1.33-.25,2.35-1.34,2.52-2.68l.54-4.28c.17-1.35-.55-2.65-1.77-3.23l-3.9-1.84c-1.23-.58-2.69-.3-3.62.69Z"/>
          <circle class="st0" cx="26.29" cy="303.88" r="17.63"/>
          <path class="st24" d="M22.09,292.86s3.13-2.02,4.82.19c0,0,1.52,1.55,0,4.64,0,0,2.37,2.14,1.34,4.43,0,0-.89,2.27-4.47,1.57,0,0-1.24,2.86-3.65,2.68,0,0-2.48.21-3.01-3.61,0,0-3.28-.37-3.69-2.71,0,0-.71-2.75,2.5-3.98,0,0-.47-3.35,1.37-4.42,0,0,1.84-1.54,4.78,1.22Z"/>
          <path class="st0" d="M23.31,294.29l2.19,2.33c.69.73.83,1.83.34,2.71l-1.54,2.8c-.48.88-1.48,1.35-2.47,1.16l-3.14-.6c-.99-.19-1.74-.99-1.87-1.99l-.4-3.17c-.13-1,.4-1.96,1.31-2.39l2.89-1.36c.91-.43,1.99-.22,2.68.51Z"/>
        </g>
        <g>
          <path class="st2" d="M196.91,138.05l35.26,44.64s1.98-17.79-7.76-30.12c-9.74-12.33-27.5-14.52-27.5-14.52Z"/>
          <path class="st20" d="M204.66,168.17c9.74,12.33,27.5,14.52,27.5,14.52l-35.26-44.64s-1.98,17.79,7.76,30.12Z"/>
          <path class="st2" d="M262.32,208.41l-30.21-19.78s2.39,11.11,10.73,16.57c8.34,5.46,19.48,3.21,19.48,3.21Z"/>
          <path class="st20" d="M251.6,191.84c-8.34-5.46-19.48-3.21-19.48-3.21l30.21,19.78s-2.39-11.11-10.73-16.57Z"/>
          <circle class="st19" cx="231.56" cy="174.72" r="23.8"/>
          <path class="st15" d="M235.44,159.31s-4.23-2.73-6.51.25c0,0-2.06,2.09,0,6.26,0,0-3.2,2.89-1.81,5.98,0,0,1.2,3.06,6.04,2.11,0,0,1.67,3.87,4.92,3.62,0,0,3.35.28,4.06-4.87,0,0,4.42-.5,4.98-3.65,0,0,.96-3.71-3.38-5.38,0,0,.63-4.52-1.85-5.97,0,0-2.49-2.08-6.45,1.65Z"/>
          <path class="st0" d="M233.81,161.24l-2.95,3.14c-.93.99-1.12,2.46-.46,3.65l2.08,3.78c.65,1.19,2,1.82,3.33,1.57l4.24-.81c1.33-.25,2.35-1.34,2.52-2.68l.54-4.28c.17-1.35-.55-2.65-1.77-3.23l-3.9-1.84c-1.23-.58-2.69-.3-3.62.69Z"/>
          <circle class="st0" cx="219.88" cy="188.24" r="17.63"/>
          <path class="st24" d="M215.69,177.22s3.13-2.02,4.82.19c0,0,1.52,1.55,0,4.64,0,0,2.37,2.14,1.34,4.43,0,0-.89,2.27-4.47,1.57,0,0-1.24,2.86-3.65,2.68,0,0-2.48.21-3.01-3.61,0,0-3.28-.37-3.69-2.71,0,0-.71-2.75,2.5-3.98,0,0-.47-3.35,1.37-4.42,0,0,1.84-1.54,4.78,1.22Z"/>
          <path class="st0" d="M216.9,178.65l2.19,2.33c.69.73.83,1.83.34,2.71l-1.54,2.8c-.48.88-1.48,1.35-2.47,1.16l-3.14-.6c-.99-.19-1.74-.99-1.87-1.99l-.4-3.17c-.13-1,.4-1.96,1.31-2.39l2.89-1.36c.91-.43,1.99-.22,2.68.51Z"/>
        </g>
        <g>
          <path class="st2" d="M80.75,138.05l35.26,44.64s1.98-17.79-7.76-30.12c-9.74-12.33-27.5-14.52-27.5-14.52Z"/>
          <path class="st20" d="M88.51,168.17c9.74,12.33,27.5,14.52,27.5,14.52l-35.26-44.64s-1.98,17.79,7.76,30.12Z"/>
          <path class="st2" d="M151.72,160.37l-30.37,32.34s13.95-.52,22.34-9.45c8.39-8.93,8.03-22.88,8.03-22.88Z"/>
          <path class="st20" d="M129.39,169.82c-8.39,8.93-8.03,22.88-8.03,22.88l30.37-32.34s-13.95.52-22.34,9.45Z"/>
          <path class="st2" d="M146.17,208.41l-30.21-19.78s2.39,11.11,10.73,16.57c8.34,5.46,19.48,3.21,19.48,3.21Z"/>
          <path class="st20" d="M135.44,191.84c-8.34-5.46-19.48-3.21-19.48-3.21l30.21,19.78s-2.39-11.11-10.73-16.57Z"/>
          <circle class="st19" cx="115.41" cy="174.72" r="23.8"/>
          <path class="st15" d="M119.29,159.31s-4.23-2.73-6.51.25c0,0-2.06,2.09,0,6.26,0,0-3.2,2.89-1.81,5.98,0,0,1.2,3.06,6.04,2.11,0,0,1.67,3.87,4.92,3.62,0,0,3.35.28,4.06-4.87,0,0,4.42-.5,4.98-3.65,0,0,.96-3.71-3.38-5.38,0,0,.63-4.52-1.85-5.97,0,0-2.49-2.08-6.45,1.65Z"/>
          <path class="st0" d="M117.65,161.24l-2.95,3.14c-.93.99-1.12,2.46-.46,3.65l2.08,3.78c.65,1.19,2,1.82,3.33,1.57l4.24-.81c1.33-.25,2.35-1.34,2.52-2.68l.54-4.28c.17-1.35-.55-2.65-1.77-3.23l-3.9-1.84c-1.23-.58-2.69-.3-3.62.69Z"/>
          <circle class="st0" cx="103.72" cy="188.24" r="17.63"/>
          <path class="st24" d="M99.53,177.22s3.13-2.02,4.82.19c0,0,1.52,1.55,0,4.64,0,0,2.37,2.14,1.34,4.43,0,0-.89,2.27-4.47,1.57,0,0-1.24,2.86-3.65,2.68,0,0-2.48.21-3.01-3.61,0,0-3.28-.37-3.69-2.71,0,0-.71-2.75,2.5-3.98,0,0-.47-3.35,1.37-4.42,0,0,1.84-1.54,4.78,1.22Z"/>
          <path class="st0" d="M100.74,178.65l2.19,2.33c.69.73.83,1.83.34,2.71l-1.54,2.8c-.48.88-1.48,1.35-2.47,1.16l-3.14-.6c-.99-.19-1.74-.99-1.87-1.99l-.4-3.17c-.13-1,.4-1.96,1.31-2.39l2.89-1.36c.91-.43,1.99-.22,2.68.51Z"/>
        </g>
        <g>
          <path class="st2" d="M-35.4,138.05L-.15,182.69s1.98-17.79-7.76-30.12c-9.74-12.33-27.5-14.52-27.5-14.52Z"/>
          <path class="st2" d="M35.57,160.37l-30.37,32.34s13.95-.52,22.34-9.45c8.39-8.93,8.03-22.88,8.03-22.88Z"/>
          <path class="st20" d="M13.23,169.82c-8.39,8.93-8.03,22.88-8.03,22.88l30.37-32.34s-13.95.52-22.34,9.45Z"/>
          <path class="st2" d="M30.01,208.41L-.2,188.63s2.39,11.11,10.73,16.57c8.34,5.46,19.48,3.21,19.48,3.21Z"/>
          <path class="st20" d="M19.28,191.84c-8.34-5.46-19.48-3.21-19.48-3.21l30.21,19.78s-2.39-11.11-10.73-16.57Z"/>
          <circle class="st19" cx="-.75" cy="174.72" r="23.8"/>
          <path class="st15" d="M3.13,159.31s-4.23-2.73-6.51.25c0,0-2.06,2.09,0,6.26,0,0-3.2,2.89-1.81,5.98,0,0,1.2,3.06,6.04,2.11,0,0,1.67,3.87,4.92,3.62,0,0,3.35.28,4.06-4.87,0,0,4.42-.5,4.98-3.65,0,0,.96-3.71-3.38-5.38,0,0,.63-4.52-1.85-5.97,0,0-2.49-2.08-6.45,1.65Z"/>
          <path class="st0" d="M1.5,161.24l-2.95,3.14c-.93.99-1.12,2.46-.46,3.65l2.08,3.78c.65,1.19,2,1.82,3.33,1.57l4.24-.81c1.33-.25,2.35-1.34,2.52-2.68l.54-4.28c.17-1.35-.55-2.65-1.77-3.23l-3.9-1.84c-1.23-.58-2.69-.3-3.62.69Z"/>
          <circle class="st0" cx="-12.43" cy="188.24" r="17.63"/>
        </g>
        <g>
          <path class="st2" d="M158.19,22.41l35.26,44.64s1.98-17.79-7.76-30.12c-9.74-12.33-27.5-14.52-27.5-14.52Z"/>
          <path class="st20" d="M165.94,52.53c9.74,12.33,27.5,14.52,27.5,14.52l-35.26-44.64s-1.98,17.79,7.76,30.12Z"/>
          <path class="st2" d="M229.16,44.73l-30.37,32.34s13.95-.52,22.34-9.45c8.39-8.93,8.03-22.88,8.03-22.88Z"/>
          <path class="st20" d="M206.82,54.18c-8.39,8.93-8.03,22.88-8.03,22.88l30.37-32.34s-13.95.52-22.34,9.45Z"/>
          <path class="st2" d="M223.61,92.77l-30.21-19.78s2.39,11.11,10.73,16.57c8.34,5.46,19.48,3.21,19.48,3.21Z"/>
          <path class="st20" d="M212.88,76.2c-8.34-5.46-19.48-3.21-19.48-3.21l30.21,19.78s-2.39-11.11-10.73-16.57Z"/>
          <circle class="st19" cx="192.84" cy="59.08" r="23.8"/>
          <path class="st15" d="M196.73,43.67s-4.23-2.73-6.51.25c0,0-2.06,2.09,0,6.26,0,0-3.2,2.89-1.81,5.98,0,0,1.2,3.06,6.04,2.11,0,0,1.67,3.87,4.92,3.62,0,0,3.35.28,4.06-4.87,0,0,4.42-.5,4.98-3.65,0,0,.96-3.71-3.38-5.38,0,0,.63-4.52-1.85-5.97,0,0-2.49-2.08-6.45,1.65Z"/>
          <path class="st0" d="M195.09,45.6l-2.95,3.14c-.93.99-1.12,2.46-.46,3.65l2.08,3.78c.65,1.19,2,1.82,3.33,1.57l4.24-.81c1.33-.25,2.35-1.34,2.52-2.68l.54-4.28c.17-1.35-.55-2.65-1.77-3.23l-3.9-1.84c-1.23-.58-2.69-.3-3.62.69Z"/>
          <circle class="st0" cx="181.16" cy="72.6" r="17.63"/>
          <path class="st24" d="M176.97,61.58s3.13-2.02,4.82.19c0,0,1.52,1.55,0,4.64,0,0,2.37,2.14,1.34,4.43,0,0-.89,2.27-4.47,1.57,0,0-1.24,2.86-3.65,2.68,0,0-2.48.21-3.01-3.61,0,0-3.28-.37-3.69-2.71,0,0-.71-2.75,2.5-3.98,0,0-.47-3.35,1.37-4.42,0,0,1.84-1.54,4.78,1.22Z"/>
          <path class="st0" d="M178.18,63.01l2.19,2.33c.69.73.83,1.83.34,2.71l-1.54,2.8c-.48.88-1.48,1.35-2.47,1.16l-3.14-.6c-.99-.19-1.74-.99-1.87-1.99l-.4-3.17c-.13-1,.4-1.96,1.31-2.39l2.89-1.36c.91-.43,1.99-.22,2.68.51Z"/>
        </g>
        <g>
          <path class="st2" d="M42.03,22.41l35.26,44.64s1.98-17.79-7.76-30.12c-9.74-12.33-27.5-14.52-27.5-14.52Z"/>
          <path class="st20" d="M49.79,52.53c9.74,12.33,27.5,14.52,27.5,14.52L42.03,22.41s-1.98,17.79,7.76,30.12Z"/>
          <path class="st2" d="M113.01,44.73l-30.37,32.34s13.95-.52,22.34-9.45c8.39-8.93,8.03-22.88,8.03-22.88Z"/>
          <path class="st20" d="M90.67,54.18c-8.39,8.93-8.03,22.88-8.03,22.88l30.37-32.34s-13.95.52-22.34,9.45Z"/>
          <path class="st2" d="M107.45,92.77l-30.21-19.78s2.39,11.11,10.73,16.57c8.34,5.46,19.48,3.21,19.48,3.21Z"/>
          <path class="st20" d="M96.72,76.2c-8.34-5.46-19.48-3.21-19.48-3.21l30.21,19.78s-2.39-11.11-10.73-16.57Z"/>
          <circle class="st19" cx="76.69" cy="59.08" r="23.8"/>
          <path class="st15" d="M80.57,43.67s-4.23-2.73-6.51.25c0,0-2.06,2.09,0,6.26,0,0-3.2,2.89-1.81,5.98,0,0,1.2,3.06,6.04,2.11,0,0,1.67,3.87,4.92,3.62,0,0,3.35.28,4.06-4.87,0,0,4.42-.5,4.98-3.65,0,0,.96-3.71-3.38-5.38,0,0,.63-4.52-1.85-5.97,0,0-2.49-2.08-6.45,1.65Z"/>
          <path class="st0" d="M78.93,45.6l-2.95,3.14c-.93.99-1.12,2.46-.46,3.65l2.08,3.78c.65,1.19,2,1.82,3.33,1.57l4.24-.81c1.33-.25,2.35-1.34,2.52-2.68l.54-4.28c.17-1.35-.55-2.65-1.77-3.23l-3.9-1.84c-1.23-.58-2.69-.3-3.62.69Z"/>
          <circle class="st0" cx="65" cy="72.6" r="17.63"/>
          <path class="st24" d="M60.81,61.58s3.13-2.02,4.82.19c0,0,1.52,1.55,0,4.64,0,0,2.37,2.14,1.34,4.43,0,0-.89,2.27-4.47,1.57,0,0-1.24,2.86-3.65,2.68,0,0-2.48.21-3.01-3.61,0,0-3.28-.37-3.69-2.71,0,0-.71-2.75,2.5-3.98,0,0-.47-3.35,1.37-4.42,0,0,1.84-1.54,4.78,1.22Z"/>
          <path class="st0" d="M62.03,63.01l2.19,2.33c.69.73.83,1.83.34,2.71l-1.54,2.8c-.48.88-1.48,1.35-2.47,1.16l-3.14-.6c-.99-.19-1.74-.99-1.87-1.99l-.4-3.17c-.13-1,.4-1.96,1.31-2.39l2.89-1.36c.91-.43,1.99-.22,2.68.51Z"/>
        </g>
      </g>
    </pattern>
    <clipPath id="clippath">
      <rect class="st11" x="84.94" y="246.48" width="117.91" height="117.91"/>
    </clipPath>
  </defs>
  <rect class="st3" width="800" height="600"/>
  <rect class="st22" width="800" height="600"/>
  <g>
    <text class="st1" transform="translate(45.2 116.43)"><tspan x="0" y="0">Introduction</tspan></text>
    <text class="st1" transform="translate(277.99 197.18)"><tspan x="0" y="0">고사원</tspan></text>
    <g>
      <path class="st0" d="M278.8,234.92h14.86v3.34h-2.56v2.99h-3.56v-2.99h-2.63v2.99h-3.56v-2.99h-2.56v-3.34ZM279.47,229.11c0-.85.17-1.58.52-2.17s.82-1.08,1.43-1.45,1.32-.65,2.14-.81,1.71-.25,2.67-.25,1.86.08,2.68.25c.82.17,1.54.44,2.15.81.61.38,1.08.86,1.43,1.45s.52,1.32.52,2.17-.17,1.58-.52,2.17-.82,1.08-1.43,1.45c-.61.38-1.32.65-2.15.81-.82.17-1.72.25-2.68.25s-1.85-.08-2.67-.25-1.53-.44-2.14-.81c-.61-.37-1.08-.86-1.43-1.45s-.52-1.32-.52-2.17ZM283.03,229.11c0,.49.29.84.87,1.05.58.21,1.35.31,2.33.31s1.74-.1,2.33-.31c.59-.21.88-.56.88-1.05s-.29-.82-.88-1.04-1.37-.32-2.33-.32-1.75.1-2.33.31c-.58.21-.87.56-.87,1.05Z"/>
      <path class="st0" d="M302.92,228.35v-2.73l3.33-.43v-.95h3.56v11.77h-3.56v-4.38l-1.99.25v2.27h-8.74v-9.72h3.56v6.57h3.85v-1.71l3.33-.43v-.93l-3.33.41ZM299.79,235.31v2.4h10.19v3.32h-13.74v-5.72h3.56Z"/>
      <path class="st0" d="M317.54,240.45v-12.49h-5.53v-3.34h9.09v15.83h-3.56ZM326.3,240.64h-3.56v-16.41h3.56v16.41Z"/>
      <path class="st0" d="M328.27,234.92h14.86v3.34h-5.65v2.99h-3.56v-2.99h-5.65v-3.34ZM329.12,233.62v-9h3.56v1.14h6.06v-1.14h3.56v9h-13.18ZM338.74,230.29v-1.18h-6.06v1.18h6.06Z"/>
      <path class="st0" d="M353.73,224.63v3.34h-5.19v2.97h3.3v3.34h-3.3v2.85h5.36v3.34h-8.92v-15.83h8.74ZM359.28,240.64h-3.56v-7.27l-2.66,1.01v-3.67l2.66-1.01v-5.47h3.56v16.41Z"/>
      <path class="st0" d="M366.07,233.45v-2.58h14.86v2.58h-14.86ZM376.53,236.55v-.48h-9.62v-2h13.18v4.48h-9.62v.48h9.79v2h-13.35v-4.48h9.62ZM370.64,225.05h5.72v-.62h3.56v5.82h-12.83v-5.82h3.56v.62ZM376.36,227.32h-5.72v.66h5.72v-.66Z"/>
      <path class="st0" d="M382.56,235.31h14.86v3.34h-5.65v2.6h-3.55v-2.6h-5.65v-3.34ZM383.4,227.38v-2.75h13.18v6.21h-9.62v.72h9.79v2.75h-13.35v-6.23h9.6v-.7h-9.6Z"/>
      <path class="st0" d="M408.1,240.64v-6.85l-.94.37v6.28h-7.89v-15.83h3.33v4.65h1.22v-4.65h3.33v5.88l.94-.37v-5.9h3.33v16.41h-3.33ZM403.83,232.62h-1.22v4.5h1.22v-4.5ZM415.52,240.64h-3.35v-16.41h3.35v16.41Z"/>
      <path class="st0" d="M417.48,227.96v-3.34h9.09v9.64h-5.53v2.85h5.88v3.34h-9.43v-9.52h5.53v-2.97h-5.53ZM431.77,240.64h-3.56v-16.41h3.56v16.41Z"/>
      <path class="st0" d="M433.75,233.93v-2.39h14.86v2.39h-14.86ZM444.21,236.82v-.52h-9.62v-1.84h13.18v4.21h-9.62v.52h9.79v1.84h-13.35v-4.21h9.62ZM444.04,226.78v-.52h-9.28v-1.84h12.83v4.21h-9.28v.52h9.45v1.84h-13v-4.21h9.28Z"/>
      <path class="st0" d="M458.83,224.63v12.49h5.19v3.34h-8.74v-15.83h3.56ZM469.57,240.64h-3.56v-8.05l-3.69,1.4v-3.67l3.69-1.4v-4.69h3.56v16.41Z"/>
      <path class="st0" d="M471.54,234.92h14.86v3.34h-5.65v2.99h-3.56v-2.99h-5.65v-3.34ZM472.38,224.63h13.18v9h-13.18v-9ZM475.94,230.29h6.06v-2.33h-6.06v2.33Z"/>
      <path class="st0" d="M492.84,233.57v-2.58h5.65v-.81h3.56v.81h5.65v2.58h-14.86ZM507.2,236.59h-13.86v-2.21h5.15v-.54h3.56v.54h5.15v2.21ZM506.69,224.43v2.58h-4.64c-.02.1-.05.17-.07.21l5.12,1.01-.94,2.44-6.18-1.3c-.72.38-1.57.67-2.53.87-.97.21-1.99.36-3.07.45l-.93-2.46c1.36-.1,2.46-.25,3.3-.43.84-.18,1.41-.45,1.72-.79h-4.6v-2.58h12.83ZM493.75,239.19c0-.36.1-.69.3-.97.2-.28.55-.52,1.05-.7s1.17-.32,2.01-.42c.84-.1,1.9-.15,3.17-.15s2.32.05,3.16.15c.84.1,1.5.24,2,.42.5.18.85.41,1.05.7.2.28.3.61.3.97s-.1.7-.3.98c-.2.28-.55.51-1.05.69-.5.18-1.17.32-2,.42-.84.1-1.89.15-3.16.15s-2.33-.05-3.17-.15c-.84-.1-1.51-.24-2.01-.42s-.85-.41-1.05-.69c-.2-.28-.3-.6-.3-.98ZM497.21,239.19c0,.06.05.11.15.15.1.03.26.06.5.07.24.01.55.02.95.03.4,0,.89,0,1.49,0s1.07,0,1.47,0c.39,0,.71-.02.95-.03s.41-.04.51-.07c.1-.03.15-.08.15-.15,0-.05-.05-.1-.15-.14-.1-.04-.27-.07-.51-.09-.24-.02-.56-.03-.95-.04-.4,0-.88,0-1.47,0s-1.09,0-1.49,0-.71.02-.95.04c-.23.02-.4.05-.5.09-.1.04-.15.08-.15.14Z"/>
      <path class="st0" d="M518.83,232.54c0,1.56-.15,2.87-.44,3.91-.29,1.04-.67,1.87-1.13,2.49s-.99,1.06-1.57,1.32c-.58.26-1.17.39-1.75.39s-1.19-.13-1.77-.39c-.58-.26-1.11-.7-1.57-1.32s-.84-1.45-1.13-2.49c-.29-1.04-.43-2.34-.43-3.91s.14-2.87.43-3.91c.29-1.04.66-1.87,1.13-2.49s.99-1.06,1.57-1.32,1.17-.39,1.77-.39,1.17.13,1.75.39,1.11.7,1.57,1.32.84,1.45,1.13,2.49c.29,1.04.44,2.34.44,3.91ZM512.58,232.54c0,1,.04,1.8.12,2.42.08.62.18,1.11.31,1.45s.27.58.44.71c.17.12.33.18.49.18.15,0,.3-.06.46-.18.16-.12.31-.35.44-.7.13-.34.24-.83.32-1.45s.12-1.44.12-2.45-.04-1.8-.12-2.42-.19-1.1-.32-1.44c-.13-.34-.28-.58-.44-.7-.16-.12-.32-.18-.46-.18-.16,0-.32.06-.49.18-.17.12-.31.36-.44.71s-.23.83-.31,1.45c-.08.62-.12,1.43-.12,2.42ZM523.33,229.92h1.5v3.34h-1.5v7.39h-3.56v-16.41h3.56v5.68Z"/>
      <path class="st0" d="M531.94,225.6h2.9v3.34h-9.36v-3.34h2.9v-1.71h3.56v1.71ZM530.15,240.64c-.62,0-1.19-.1-1.71-.29-.52-.19-.97-.51-1.34-.94s-.66-1-.88-1.69-.32-1.53-.32-2.51.11-1.82.32-2.5.5-1.24.88-1.68c.37-.43.82-.75,1.34-.95.52-.2,1.09-.3,1.71-.3s1.19.1,1.71.3c.52.2.97.52,1.34.95.37.43.66.99.88,1.68s.32,1.52.32,2.5-.11,1.82-.32,2.51-.5,1.25-.88,1.69-.82.75-1.34.94c-.52.19-1.09.29-1.71.29ZM530.15,237.31c.33,0,.57-.17.71-.49.14-.33.21-.86.21-1.6s-.07-1.27-.21-1.6c-.14-.33-.38-.49-.71-.49s-.57.16-.71.49c-.14.33-.21.86-.21,1.6s.07,1.27.21,1.6c.14.33.38.49.71.49ZM535.39,240.64v-16.41h3.33v6.21l.91-.35v-5.86h3.35v16.41h-3.35v-6.88l-.91.35v6.54h-3.33Z"/>
      <path class="st0" d="M278.8,270.47v-2.58h14.86v2.58h-14.86ZM289.26,273.58v-.48h-9.62v-2h13.18v4.48h-9.62v.48h9.79v2h-13.35v-4.48h9.62ZM283.37,262.08h5.72v-.62h3.56v5.82h-12.83v-5.82h3.56v.62ZM289.09,264.35h-5.72v.66h5.72v-.66Z"/>
      <path class="st0" d="M295.29,272.34h14.86v3.34h-5.65v2.6h-3.56v-2.6h-5.65v-3.34ZM296.13,264.4v-2.75h13.18v6.21h-9.62v.72h9.79v2.75h-13.35v-6.23h9.6v-.7h-9.6Z"/>
      <path class="st0" d="M320.84,277.67v-6.85l-.94.37v6.28h-7.88v-15.83h3.33v4.65h1.22v-4.65h3.33v5.88l.94-.37v-5.9h3.33v16.41h-3.33ZM316.56,269.64h-1.22v4.5h1.22v-4.5ZM328.26,277.67h-3.35v-16.41h3.35v16.41Z"/>
      <path class="st0" d="M330.22,264.99v-3.34h9.09v9.64h-5.53v2.85h5.88v3.34h-9.43v-9.52h5.53v-2.97h-5.53ZM344.51,277.67h-3.56v-16.41h3.56v16.41Z"/>
      <path class="st0" d="M351.29,267.78h4.62v-1.86h3.56v1.86h6.68v2.95h-14.86v-2.95ZM358.73,278.44c-2.16,0-3.83-.27-5.01-.81-1.17-.54-1.76-1.45-1.76-2.73s.59-2.19,1.76-2.73c1.17-.54,2.84-.8,5.01-.8,1.08,0,2.04.06,2.88.19.84.13,1.55.33,2.13.61.58.28,1.02.64,1.31,1.1.3.45.45,1,.45,1.63,0,1.28-.59,2.19-1.76,2.73-1.17.54-2.84.81-5.01.81ZM361.58,264.79h-9.28v-3.34h12.83v5.7h-3.56v-2.37ZM358.73,275.57c1.01,0,1.8-.05,2.36-.14s.85-.27.85-.54-.28-.45-.85-.54-1.35-.14-2.36-.14-1.79.05-2.36.14-.85.27-.85.54.28.45.85.54,1.35.14,2.36.14Z"/>
      <path class="st0" d="M377.32,261.46v3.12h-3.16v.27c0,.26-.02.51-.05.76l3.69,2.27-1.92,2.77-3.06-2.21c-.5.57-1.12,1.04-1.86,1.43s-1.56.64-2.47.79l-1.53-2.93c.53-.12,1.01-.26,1.46-.42.45-.16.83-.36,1.16-.59.33-.23.58-.5.76-.81.18-.3.27-.66.27-1.08v-.25h-2.99v-3.12h9.71ZM375.27,278.44c-1.09,0-2.06-.07-2.9-.21-.85-.14-1.56-.36-2.15-.65-.58-.29-1.03-.67-1.34-1.12-.31-.46-.46-1.01-.46-1.66s.15-1.18.46-1.64.76-.84,1.34-1.13c.58-.3,1.3-.51,2.15-.65.85-.14,1.81-.2,2.9-.2s2.04.07,2.89.2c.85.14,1.57.35,2.16.65.58.3,1.03.68,1.34,1.13s.46,1.01.46,1.64-.15,1.2-.46,1.66c-.31.46-.76.83-1.34,1.12-.58.29-1.3.51-2.16.65-.85.14-1.82.21-2.89.21ZM375.27,275.69c1.01,0,1.81-.07,2.4-.21.6-.14.89-.37.89-.68s-.3-.54-.89-.68c-.6-.14-1.4-.21-2.4-.21s-1.81.07-2.41.21c-.6.14-.89.37-.89.68s.3.54.89.68,1.4.21,2.41.21ZM381.79,267.25v3.61h-3.56v-9.6h3.56v2.66h1.49v3.34h-1.49Z"/>
      <path class="st0" d="M394.02,270.55l-1,.39c-.07,1.29-.24,2.37-.51,3.23-.27.86-.61,1.55-1.01,2.07-.41.52-.87.89-1.38,1.11s-1.04.33-1.61.33c-.61,0-1.19-.13-1.74-.39-.55-.26-1.03-.7-1.44-1.32-.41-.62-.74-1.45-.99-2.49-.25-1.04-.37-2.34-.37-3.91s.12-2.87.37-3.91c.25-1.04.58-1.87.99-2.49.41-.62.89-1.06,1.44-1.32s1.13-.39,1.74-.39c.53,0,1.03.1,1.51.29.48.19.92.52,1.31.97.4.45.73,1.05,1,1.8.28.75.47,1.68.58,2.79l1.08-.43v-5.62h3.33v16.41h-3.33v-7.12ZM387.3,269.56c0,1,.04,1.8.11,2.42s.17,1.11.29,1.45.25.58.4.71c.14.12.28.18.42.18s.28-.06.42-.18c.14-.12.27-.35.39-.7.12-.34.21-.83.28-1.45.07-.63.11-1.44.11-2.45s-.04-1.8-.11-2.42c-.08-.62-.17-1.1-.28-1.44-.11-.34-.24-.58-.39-.7-.14-.12-.28-.18-.42-.18s-.28.06-.42.18c-.14.12-.28.36-.4.71s-.22.83-.29,1.45c-.07.62-.11,1.43-.11,2.42ZM398.09,277.67v-16.41h3.35v16.41h-3.35Z"/>
      <path class="st0" d="M408.86,268.61c0,.85-.07,1.67-.21,2.46l3.87,3.39-1.77,2.97-3.37-3.01c-.46.7-1.03,1.31-1.72,1.82s-1.51.91-2.47,1.18l-1.53-2.93c.65-.21,1.21-.48,1.67-.8s.83-.74,1.12-1.22.51-1.05.64-1.69c.14-.64.21-1.37.21-2.2v-7.18h3.56v7.19ZM417,277.67h-3.56v-8.05l-2.66,1.01v-3.67l2.66-1.01v-4.69h3.56v16.41Z"/>
      <path class="st0" d="M423.49,265.33c0-.67.12-1.26.36-1.77s.58-.94,1.02-1.28c.44-.34.97-.6,1.6-.77.62-.17,1.32-.25,2.09-.25s1.46.08,2.09.25c.62.17,1.16.42,1.6.77.44.34.78.77,1.02,1.28s.36,1.1.36,1.77-.12,1.26-.36,1.76-.58.93-1.02,1.27c-.44.34-.97.6-1.6.77-.62.17-1.32.25-2.09.25s-1.46-.08-2.09-.25c-.62-.17-1.16-.42-1.6-.77-.44-.34-.78-.77-1.02-1.27s-.36-1.09-.36-1.76ZM434.75,272.98v-.58h-10.02v-2.25h13.57v5.08h-10v.58h10.17v2.25h-13.74v-5.08h10.02ZM428.56,266.54c.49,0,.89-.1,1.2-.29.31-.19.46-.5.46-.91s-.15-.7-.46-.91c-.31-.21-.71-.31-1.2-.31s-.88.1-1.19.31c-.31.21-.46.51-.46.91s.16.72.46.91c.31.19.7.29,1.19.29ZM438.3,261.26v8.2h-3.56v-8.2h3.56Z"/>
      <path class="st0" d="M446.65,262.62h3.16v3.34h-9.88v-3.34h3.16v-1.71h3.56v1.71ZM444.88,277.67c-.62,0-1.2-.1-1.75-.29-.55-.19-1.03-.51-1.43-.94s-.73-1-.97-1.69-.36-1.53-.36-2.51.12-1.82.36-2.5.56-1.24.97-1.68c.41-.43.88-.75,1.43-.95.55-.2,1.13-.3,1.75-.3s1.2.1,1.75.3c.55.2,1.03.52,1.43.95.41.43.73.99.97,1.68s.36,1.52.36,2.5-.12,1.82-.36,2.51-.56,1.25-.97,1.69-.88.75-1.43.94c-.55.19-1.13.29-1.75.29ZM444.88,274.33c.33,0,.58-.17.74-.49.16-.33.24-.86.24-1.6s-.08-1.27-.24-1.6c-.16-.33-.41-.49-.74-.49s-.58.16-.74.49c-.16.33-.24.86-.24,1.6s.08,1.27.24,1.6c.16.33.41.49.74.49ZM454.28,266.94h1.5v3.34h-1.5v7.39h-3.56v-16.41h3.56v5.68Z"/>
      <path class="st0" d="M456.77,268.65h14.86v3.34h-14.86v-3.34ZM461.17,272.92v1.82h9.79v3.32h-13.35v-5.14h3.56ZM461.34,264.4h9.28v3.34h-12.83v-6.28h3.56v2.95Z"/>
      <path class="st0" d="M487.12,277.67v-6.85l-.94.37v6.28h-3.33v-12.49h-4.55v-3.34h7.89v5.88l.94-.37v-5.9h3.33v16.41h-3.33ZM494.54,277.67h-3.35v-16.41h3.35v16.41Z"/>
      <path class="st0" d="M501.09,267.78h14.86v2.95h-5.65v.83h4.81v6.5h-13.18v-6.5h4.81v-.83h-5.65v-2.95ZM504.68,265.18h-2.92v-3.14h6.3v5.12h-3.38v-1.98ZM505.49,274.41v.79h6.06v-.79h-6.06ZM511.55,264.6h-2.92v-3.14h6.3v5.7h-3.38v-2.56Z"/>
      <path class="st0" d="M527.42,269.56c0,1.56-.15,2.87-.44,3.91-.29,1.04-.68,1.87-1.15,2.49s-1.02,1.06-1.62,1.32c-.61.26-1.23.39-1.86.39s-1.27-.13-1.87-.39c-.61-.26-1.15-.7-1.62-1.32-.47-.62-.86-1.45-1.14-2.49-.29-1.04-.43-2.34-.43-3.91s.14-2.87.43-3.91c.29-1.04.67-1.87,1.14-2.49.48-.62,1.02-1.06,1.62-1.32.61-.26,1.23-.39,1.87-.39s1.25.13,1.86.39c.61.26,1.15.7,1.62,1.32s.86,1.45,1.15,2.49c.29,1.04.44,2.34.44,3.91ZM520.83,269.56c0,1,.04,1.8.12,2.42.08.62.19,1.11.33,1.45.14.35.31.58.49.71.18.12.38.18.58.18.19,0,.38-.06.57-.18.18-.12.34-.35.48-.7s.25-.83.33-1.45.13-1.44.13-2.45-.04-1.8-.13-2.42-.2-1.1-.33-1.44c-.14-.34-.3-.58-.48-.7-.18-.12-.37-.18-.57-.18-.21,0-.4.06-.58.18-.18.12-.35.36-.49.71-.14.35-.26.83-.33,1.45-.08.62-.12,1.43-.12,2.42ZM532.1,277.67h-3.56v-16.41h3.56v16.41Z"/>
      <path class="st0" d="M548.59,261.26v9.41h-3.56v-3.53l-1.7.41c-.3.96-.85,1.7-1.67,2.24-.81.54-1.81.8-2.99.8-.74,0-1.42-.11-2.02-.33-.6-.22-1.12-.53-1.55-.93s-.76-.89-.99-1.46c-.23-.58-.34-1.22-.34-1.93s.11-1.37.34-1.95c.23-.58.56-1.07.99-1.47s.94-.72,1.55-.93,1.27-.32,2.02-.32c1.11,0,2.05.23,2.83.7.77.47,1.34,1.12,1.69,1.96l1.84-.45v-2.21h3.56ZM546.89,271.97c0,.67-.08,1.32-.24,1.94l3.13,1.07-1.31,2.95-3.3-1.2c-.5.56-1.08,1.01-1.74,1.37-.66.36-1.37.6-2.14.75l-1.41-2.46c.77-.16,1.39-.38,1.87-.66l-1.98-.68c-.5.69-1.15,1.25-1.93,1.71-.78.45-1.63.77-2.55.95l-1.25-2.75c1.1-.21,1.93-.58,2.51-1.12.57-.54.86-1.16.86-1.84v-.62h3.38v.87c0,.08,0,.15-.02.23l2.59.91c.09-.45.14-.92.14-1.4v-.62h3.38v.62ZM538.67,267.45c.42,0,.78-.14,1.07-.41.29-.27.43-.64.43-1.11,0-.49-.14-.87-.43-1.13-.29-.26-.64-.4-1.07-.4s-.78.13-1.07.4c-.29.27-.43.64-.43,1.13,0,.47.14.83.43,1.11s.64.41,1.07.41Z"/>
      <path class="st0" d="M554.15,264.79v3.04h4.95v3.34h-8.31v-9.72h8.31v3.34h-4.95ZM555.06,272.34v2.4h10.19v3.32h-13.74v-5.72h3.56ZM559.55,268.11v-3.67l1.98-.48v-2.7h3.56v11.77h-3.56v-5.41l-1.98.48Z"/>
      <path class="st0" d="M571.86,274.33h4.62v-6.09h3.56v6.09h6.68v3.34h-14.86v-3.34ZM582.33,264.99h-9.62v-3.34h13.18v11.04h-3.56v-7.7Z"/>
      <path class="st0" d="M594.73,268.61c0,.85-.07,1.67-.21,2.46l3.87,3.39-1.77,2.97-3.37-3.01c-.46.7-1.03,1.31-1.72,1.82s-1.51.91-2.47,1.18l-1.53-2.93c.65-.21,1.21-.48,1.67-.8s.83-.74,1.12-1.22.51-1.05.64-1.69c.14-.64.21-1.37.21-2.2v-7.18h3.56v7.19ZM602.35,266.94h1.5v3.34h-1.5v7.39h-3.56v-16.41h3.56v5.68Z"/>
      <path class="st0" d="M608.78,274.02v.72h10.75v3.32h-14.31v-4.75h2.7v-.78h-3.5v-2.95h10.72v2.95h-3.66v1.49h-2.7ZM604.67,265.1c0-.67.13-1.25.39-1.74s.61-.88,1.06-1.19c.45-.31.97-.54,1.58-.68.61-.14,1.26-.21,1.96-.21.53,0,1.03.04,1.5.13.48.08.91.21,1.31.38.4.17.75.39,1.06.65.3.27.55.58.75.94l1.53-.39v-1.73h3.56v12.53h-3.56v-7.49l-1.48.39c-.36.78-.95,1.34-1.79,1.69-.84.35-1.8.52-2.89.52-.7,0-1.35-.07-1.96-.21-.61-.14-1.13-.37-1.58-.68-.45-.31-.8-.7-1.06-1.18-.26-.48-.39-1.05-.39-1.73ZM609.66,266.15c.45,0,.83-.08,1.13-.24.31-.16.46-.43.46-.8s-.15-.65-.46-.81c-.31-.17-.69-.25-1.13-.25s-.8.08-1.11.25c-.3.17-.46.44-.46.81s.15.66.46.81c.3.16.67.23,1.11.23Z"/>
      <path class="st0" d="M621.73,273.19v-11.77h3.56v11.77h-3.56ZM621.73,278.06v-3.82h3.56v3.82h-3.56Z"/>
      <path class="st0" d="M278.51,302.96c0-.72.11-1.37.34-1.95s.56-1.07.99-1.47.94-.72,1.55-.93c.6-.21,1.27-.32,2.02-.32s1.42.11,2.02.32,1.12.52,1.55.93c.43.41.76.9.99,1.47s.34,1.23.34,1.95-.11,1.35-.34,1.93-.56,1.06-.99,1.46c-.43.4-.94.71-1.55.93s-1.27.33-2.02.33-1.42-.11-2.02-.33c-.6-.22-1.12-.53-1.55-.93-.43-.4-.76-.89-.99-1.46s-.34-1.22-.34-1.93ZM292.8,308.39v6.69h-13.06v-6.69h13.06ZM283.4,304.47c.42,0,.78-.14,1.06-.41s.43-.64.43-1.11c0-.49-.14-.87-.43-1.13-.29-.26-.64-.4-1.06-.4s-.78.13-1.06.4c-.29.27-.43.64-.43,1.13,0,.47.14.83.43,1.11.29.27.64.41,1.06.41ZM283.3,311.12v1.22h5.94v-1.22h-5.94ZM292.8,304.28v3.43h-3.56v-9.42h3.56v2.66h1.49v3.34h-1.49Z"/>
      <path class="st0" d="M295.29,307.42h14.86v2.95h-14.86v-2.95ZM309.65,301.25h-13.86v-2.54h5.15v-1.12h3.56v1.12h5.15v2.54ZM305.75,315.08v-1.24h-9.62v-2.93h13.18v4.17h-3.56ZM296.2,304.3c0-.41.1-.78.3-1.11.2-.32.55-.6,1.05-.82.5-.23,1.17-.4,2.01-.51s1.9-.17,3.17-.17,2.32.06,3.16.17c.84.12,1.5.29,2,.51.5.23.85.5,1.05.82.2.32.3.69.3,1.11s-.1.79-.3,1.12c-.2.33-.55.6-1.05.82s-1.17.39-2,.5c-.84.12-1.89.17-3.16.17s-2.33-.06-3.17-.17c-.84-.12-1.51-.28-2.01-.5s-.85-.49-1.05-.82c-.2-.33-.3-.7-.3-1.12ZM299.84,304.3c0,.09.04.17.12.22.08.06.23.1.45.13.22.03.51.04.88.06.37.01.85.02,1.43.02s1.06,0,1.43-.02c.37-.01.66-.03.88-.06.21-.03.36-.07.45-.13.09-.06.13-.13.13-.22s-.04-.16-.13-.21-.24-.09-.46-.13c-.22-.03-.51-.05-.88-.07-.37-.01-.84-.02-1.42-.02s-1.06,0-1.43.02c-.37.01-.67.04-.88.07-.22.03-.37.07-.45.13s-.12.12-.12.21Z"/>
      <path class="st0" d="M317.54,314.5v-12.49h-5.53v-3.34h9.09v15.83h-3.56ZM326.3,314.69h-3.56v-16.41h3.56v16.41Z"/>
      <path class="st0" d="M327.98,302.96c0-.72.11-1.37.34-1.95s.56-1.07.99-1.47.94-.72,1.55-.93c.6-.21,1.27-.32,2.02-.32.82,0,1.55.13,2.19.39.64.26,1.17.63,1.61,1.12l2.56-.56v-.95h3.56v9.41h-3.56v-1.82l-2.94.62c-.42.36-.92.64-1.5.83-.58.19-1.22.29-1.92.29-.74,0-1.42-.11-2.02-.33-.6-.22-1.12-.53-1.55-.93-.43-.4-.76-.89-.99-1.46s-.34-1.22-.34-1.93ZM341.26,308.99c0,.67-.08,1.32-.24,1.94l3.13,1.07-1.31,2.95-3.3-1.2c-.5.56-1.09,1.01-1.74,1.37-.66.36-1.37.6-2.14.75l-1.41-2.46c.7-.13,1.31-.34,1.82-.62l-2.1-.72c-.5.68-1.15,1.25-1.93,1.71-.78.45-1.63.77-2.55.95l-1.25-2.75c1.1-.21,1.94-.58,2.51-1.12.57-.54.86-1.16.86-1.84v-.62h3.38v.87c0,.08,0,.16-.02.23l2.77.97c.09-.48.14-.96.14-1.46v-.62h3.38v.62ZM332.88,304.47c.42,0,.78-.14,1.06-.41s.43-.64.43-1.11c0-.49-.14-.87-.43-1.13-.29-.26-.64-.4-1.06-.4s-.78.13-1.06.4c-.29.27-.43.64-.43,1.13,0,.47.14.83.43,1.11.29.27.64.41,1.06.41ZM337.77,302.96c0,.09,0,.17,0,.25,0,.08-.01.16-.03.23l1.49-.33v-1.12l-1.49.31c.01.1.02.21.03.33,0,.12,0,.23,0,.33Z"/>
      <path class="st0" d="M348.36,301.81v3.04h4.95v3.34h-8.31v-9.72h8.31v3.34h-4.95ZM349.27,309.36v2.41h10.19v3.32h-13.74v-5.72h3.56ZM353.75,305.13v-3.67l1.98-.49v-2.7h3.56v11.77h-3.56v-5.41l-1.98.48Z"/>
      <path class="st0" d="M370.64,306.08c-.5.3-1.08.55-1.74.75-.65.2-1.37.35-2.16.44l-1.37-2.91c.54-.04,1.04-.1,1.51-.18s.88-.19,1.23-.32c.35-.13.62-.29.82-.47s.3-.39.3-.64v-.16h-3.33v-3.14h3.33v-1.71h3.56v1.71h3.33v3.14h-3.33v.17c0,.3-.05.6-.14.91l3.87.76-1.63,2.85-4.24-1.2ZM369.14,314.69v-3.9h-3.5v-3.12h10.72v3.12h-3.66v3.9h-3.56ZM380.58,314.69h-3.56v-16.41h3.56v16.41Z"/>
      <path class="st0" d="M382.27,302.67c0-.67.11-1.28.34-1.82.23-.54.56-1,.99-1.38s.94-.67,1.55-.87c.6-.21,1.27-.31,2.02-.31,1.1,0,2.04.22,2.81.65.77.43,1.34,1.04,1.69,1.81l1.86-.45v-2.02h3.55v8.92h-3.55v-3.24l-1.79.43c-.33.83-.89,1.47-1.68,1.94-.78.47-1.75.7-2.89.7-.74,0-1.42-.1-2.02-.31-.6-.21-1.12-.5-1.55-.87s-.76-.83-.99-1.38-.34-1.14-.34-1.8ZM387.06,307.88v1.03h6.46v-1.03h3.55v7.2h-13.57v-7.2h3.56ZM387.16,304.08c.42,0,.78-.13,1.07-.4.29-.26.43-.6.43-1.02,0-.44-.14-.79-.43-1.05-.29-.26-.64-.39-1.07-.39s-.78.13-1.06.39c-.29.26-.43.61-.43,1.05,0,.41.14.75.43,1.02.29.26.64.4,1.06.4ZM393.52,312.52v-1.05h-6.46v1.05h6.46Z"/>
      <path class="st0" d="M409.51,310.87v-.52h-9.62v-1.84h1.37v-.81h-2.22v-2.19h14.86v2.19h-2.22v.81h1.37v4.21h-9.62v.52h9.79v1.84h-13.35v-4.21h9.62ZM409.34,300.83v-.52h-9.28v-1.84h12.83v4.21h-9.28v.52h9.45v1.84h-13v-4.21h9.28ZM404.65,308.51h3.66v-.81h-3.66v.81Z"/>
      <path class="st0" d="M415.54,307.4v-2.58h14.86v2.58h-14.86ZM416.38,301.25c0-.58.15-1.07.46-1.47.31-.4.75-.73,1.31-.98.57-.25,1.26-.43,2.07-.54.81-.11,1.73-.16,2.75-.16s1.92.06,2.73.16c.81.11,1.51.29,2.08.54.57.25,1.01.58,1.31.98.3.4.46.89.46,1.47s-.15,1.06-.46,1.45c-.3.38-.74.69-1.31.91-.57.23-1.26.38-2.07.47s-1.73.13-2.75.13-1.94-.04-2.75-.13-1.5-.24-2.07-.47c-.57-.23-1-.53-1.31-.91-.31-.38-.46-.86-.46-1.45ZM426,310.6v-.48h-9.62v-2h13.18v4.48h-9.62v.48h9.79v2h-13.35v-4.48h9.62ZM422.98,301.74c.97,0,1.72-.03,2.24-.08.52-.05.78-.19.78-.41s-.26-.36-.78-.42c-.52-.06-1.27-.09-2.24-.09s-1.72.03-2.25.09c-.53.06-.79.2-.79.42s.26.36.79.41c.53.05,1.28.08,2.25.08Z"/>
      <path class="st0" d="M443.82,308.27v4.33h-3.11v.48h3.2v2h-6.6v-4.48h3.13v-.48h-3.13v-2h5.02v-.62h-5.48v-2.58h14.86v2.58h-5.82v.78h-2.06ZM443.94,301.93v2.37h-6.08v-5.43h6.08v2.37h-2.7v.7h2.7ZM451.43,308.7v2.25h-7.15v-2.25h1.99v-.81h3.2v.81h1.96ZM451.38,313.39c0,.76-.32,1.3-.95,1.61-.64.31-1.49.47-2.55.47s-1.92-.16-2.55-.47c-.64-.31-.95-.85-.95-1.61s.32-1.3.95-1.61,1.49-.47,2.55-.47,1.92.16,2.55.47.95.85.95,1.61ZM450.86,301.93v2.37h-6.06v-5.82h5.89v2.37h-2.51v1.08h2.68ZM448.75,313.39c0-.1-.07-.18-.21-.22-.14-.05-.36-.07-.67-.07s-.53.02-.67.07c-.14.04-.21.12-.21.22s.07.18.21.22c.14.05.36.07.67.07s.53-.02.67-.07c.14-.04.21-.12.21-.22Z"/>
      <path class="st0" d="M453.33,311.36h4.62v-6.09h3.56v6.09h6.68v3.34h-14.86v-3.34ZM463.79,302.01h-9.62v-3.34h13.18v11.04h-3.56v-7.7Z"/>
      <path class="st0" d="M483.48,298.48v3.12h-2.83c-.01.13-.02.25-.04.36-.01.11-.03.22-.05.34l3.42,1.43-1.68,2.77-3.04-1.65c-.44.41-.97.76-1.62,1.05-.64.28-1.41.52-2.3.7l-1.53-2.93c.53-.09.99-.2,1.38-.32.39-.12.71-.26.97-.43.26-.16.46-.35.6-.56.14-.21.24-.47.3-.77h-2.59v-3.12h9.02ZM478.64,310.04v-.7h-3.4v-2.17h6.44v5.04h-3.38v.7h3.47v2.17h-6.53v-5.04h3.4ZM489.15,307.17v7.91h-6.79v-7.91h6.79ZM489.15,298.29v8.2h-3.56v-3.72l-1.72.43v-3.47l1.72-.43v-1.01h3.56ZM485.23,309.51v3.22h1.05v-3.22h-1.05Z"/>
      <path class="st0" d="M491.12,306.06h14.86v3.34h-14.86v-3.34ZM491.97,301.74c0-.67.15-1.24.46-1.71.31-.47.75-.84,1.31-1.13.57-.29,1.26-.5,2.07-.62.81-.12,1.73-.18,2.75-.18s1.92.06,2.73.18c.81.12,1.51.33,2.08.62.57.29,1.01.67,1.31,1.13.3.47.46,1.03.46,1.71s-.15,1.26-.46,1.73c-.3.47-.74.84-1.31,1.12-.57.28-1.26.48-2.07.6s-1.73.18-2.75.18-1.94-.06-2.75-.18-1.5-.32-2.07-.6c-.57-.28-1-.65-1.31-1.12-.31-.46-.46-1.04-.46-1.73ZM495.52,310.13v1.63h9.79v3.32h-13.35v-4.95h3.56ZM498.56,302.59c.97,0,1.72-.05,2.24-.17.52-.11.78-.34.78-.69s-.26-.58-.78-.7-1.27-.17-2.24-.17-1.72.06-2.25.17-.79.35-.79.7.26.58.79.69c.53.11,1.28.17,2.25.17Z"/>
      <path class="st0" d="M517.46,306.59c0,1.56-.15,2.87-.44,3.91-.29,1.04-.68,1.87-1.15,2.49-.48.62-1.02,1.06-1.62,1.32-.61.26-1.23.39-1.86.39s-1.27-.13-1.87-.39c-.61-.26-1.15-.7-1.62-1.32-.47-.62-.86-1.45-1.14-2.49-.29-1.04-.43-2.34-.43-3.91s.14-2.87.43-3.91.67-1.87,1.14-2.49c.48-.62,1.02-1.06,1.62-1.32.61-.26,1.23-.39,1.87-.39s1.25.13,1.86.39c.61.26,1.15.7,1.62,1.32.48.62.86,1.45,1.15,2.49s.44,2.34.44,3.91ZM510.86,306.59c0,1,.04,1.8.12,2.42.08.62.19,1.11.33,1.45.14.35.31.59.49.71.18.12.38.18.58.18.19,0,.38-.06.57-.18.18-.12.34-.36.48-.7.14-.34.25-.83.33-1.45s.13-1.45.13-2.45-.04-1.8-.13-2.42c-.09-.62-.2-1.1-.33-1.44s-.3-.58-.48-.7c-.18-.12-.37-.18-.57-.18-.21,0-.4.06-.58.18-.18.12-.35.36-.49.71-.14.35-.26.83-.33,1.45-.08.62-.12,1.43-.12,2.42ZM522.13,314.69h-3.56v-16.41h3.56v16.41Z"/>
      <path class="st0" d="M534.4,310.97v3.32h-10.72v-3.32h10.72ZM523.94,303.93c0-.89.12-1.7.36-2.41.24-.72.58-1.33,1.01-1.83.44-.5.96-.89,1.57-1.16.61-.27,1.29-.41,2.04-.41s1.42.14,2.04.41c.61.27,1.14.66,1.57,1.16.44.5.77,1.12,1.01,1.83.24.72.36,1.52.36,2.41s-.12,1.67-.36,2.39-.58,1.32-1.01,1.82c-.44.5-.96.89-1.57,1.16-.61.27-1.29.41-2.04.41s-1.42-.14-2.04-.41c-.61-.27-1.14-.66-1.57-1.16-.44-.5-.77-1.11-1.01-1.82-.24-.71-.36-1.51-.36-2.39ZM528.92,306.39c.44,0,.78-.21,1.04-.63.26-.42.39-1.03.39-1.83s-.13-1.45-.39-1.86c-.26-.41-.6-.62-1.04-.62-.95,0-1.43.83-1.43,2.48,0,.81.12,1.43.37,1.84.25.41.6.62,1.06.62ZM538.62,314.69h-3.56v-16.41h3.56v16.41Z"/>
      <path class="st0" d="M553.86,314.5h-8.92v-3.34h.89v-9.15h-.89v-3.34h8.92v3.34h-.89v9.15h.89v3.34ZM548.88,311.16h1.05v-9.15h-1.05v9.15ZM554.29,314.69v-16.41h3.33v6.21l.91-.35v-5.86h3.35v16.41h-3.35v-6.88l-.91.35v6.54h-3.33Z"/>
      <path class="st0" d="M569.37,314.5v-12.49h-5.53v-3.34h9.09v15.83h-3.56ZM578.13,314.69h-3.56v-16.41h3.56v16.41Z"/>
      <path class="st0" d="M580.95,301.62v-2.95h13.18v6.98h-9.62v1.11h9.79v2.95h-4.98v1.65h5.65v3.34h-14.86v-3.34h5.65v-1.65h-4.81v-7h9.6v-1.09h-9.6Z"/>
      <path class="st0" d="M605.19,301.81v2.27h5.36v3.34h-8.92v-8.94h8.74v3.34h-5.19ZM608.9,315.47c-1.09,0-2.06-.07-2.9-.21-.85-.14-1.56-.36-2.15-.65s-1.03-.67-1.34-1.12c-.31-.46-.46-1.01-.46-1.66s.15-1.18.46-1.64c.31-.46.76-.84,1.34-1.13.58-.3,1.3-.51,2.15-.65s1.82-.2,2.9-.2,2.04.07,2.89.2c.85.14,1.57.35,2.16.65.58.3,1.03.68,1.34,1.13.31.46.46,1.01.46,1.64s-.15,1.2-.46,1.66-.76.83-1.34,1.12-1.3.51-2.16.65c-.85.14-1.82.21-2.89.21ZM608.9,312.71c1.01,0,1.81-.07,2.41-.21.6-.14.89-.37.89-.68s-.3-.54-.89-.68c-.6-.14-1.4-.21-2.41-.21s-1.81.07-2.4.21c-.6.14-.89.37-.89.68s.3.54.89.68c.59.14,1.4.21,2.4.21ZM615.41,304.28v3.61h-3.56v-9.6h3.56v2.66h1.5v3.34h-1.5Z"/>
      <path class="st0" d="M621.68,301.81v2.27h5.36v3.34h-8.92v-8.94h8.74v3.34h-5.19ZM625.39,315.47c-1.09,0-2.06-.07-2.9-.21-.85-.14-1.56-.36-2.15-.65s-1.03-.67-1.34-1.12c-.31-.46-.46-1.01-.46-1.66s.15-1.18.46-1.64c.31-.46.76-.84,1.34-1.13.58-.3,1.3-.51,2.15-.65s1.82-.2,2.9-.2,2.04.07,2.89.2c.85.14,1.57.35,2.16.65.58.3,1.03.68,1.34,1.13.31.46.46,1.01.46,1.64s-.15,1.2-.46,1.66-.76.83-1.34,1.12-1.3.51-2.16.65c-.85.14-1.82.21-2.89.21ZM625.39,312.71c1.01,0,1.81-.07,2.41-.21.6-.14.89-.37.89-.68s-.3-.54-.89-.68c-.6-.14-1.4-.21-2.41-.21s-1.81.07-2.4.21c-.6.14-.89.37-.89.68s.3.54.89.68c.59.14,1.4.21,2.4.21ZM631.9,304.28v3.61h-3.56v-9.6h3.56v2.66h1.5v3.34h-1.5Z"/>
      <path class="st0" d="M640.94,299.64h3.33v3.34h-10.22v-3.34h3.33v-1.71h3.56v1.71ZM639.17,314.69c-.62,0-1.21-.1-1.78-.29-.57-.19-1.06-.51-1.49-.94-.43-.43-.77-1-1.03-1.69-.26-.69-.39-1.53-.39-2.51s.13-1.82.39-2.5c.26-.68.6-1.24,1.03-1.68.43-.43.93-.75,1.49-.95.57-.2,1.16-.3,1.78-.3s1.21.1,1.78.3c.57.2,1.06.52,1.49.95.43.43.77.99,1.03,1.68.26.69.39,1.52.39,2.5s-.13,1.82-.39,2.51c-.26.69-.6,1.25-1.03,1.69-.43.43-.93.75-1.49.94-.57.19-1.16.29-1.78.29ZM639.17,311.36c.37,0,.65-.17.85-.5.2-.33.3-.86.3-1.6s-.1-1.27-.3-1.6c-.2-.33-.48-.5-.85-.5s-.65.17-.85.5c-.2.33-.3.86-.3,1.6s.1,1.27.3,1.6c.2.33.48.5.85.5ZM648.91,314.69h-3.56v-16.41h3.56v16.41Z"/>
      <path class="st0" d="M278.8,344.52v-2.58h14.86v2.58h-14.86ZM289.26,347.62v-.48h-9.62v-2h13.18v4.48h-9.62v.48h9.79v2h-13.35v-4.48h9.62ZM283.37,336.12h5.72v-.62h3.56v5.82h-12.83v-5.82h3.56v.62ZM289.09,338.39h-5.72v.66h5.72v-.66Z"/>
      <path class="st0" d="M295.29,346.38h14.86v3.34h-5.65v2.6h-3.56v-2.6h-5.65v-3.34ZM296.13,338.45v-2.75h13.18v6.21h-9.62v.72h9.79v2.75h-13.35v-6.23h9.6v-.7h-9.6Z"/>
      <path class="st0" d="M320.84,351.72v-6.85l-.94.37v6.28h-7.88v-15.83h3.33v4.65h1.22v-4.65h3.33v5.88l.94-.37v-5.9h3.33v16.41h-3.33ZM316.56,343.69h-1.22v4.5h1.22v-4.5ZM328.26,351.72h-3.35v-16.41h3.35v16.41Z"/>
      <path class="st0" d="M330.22,339.03v-3.34h9.09v9.64h-5.53v2.85h5.88v3.34h-9.43v-9.52h5.53v-2.97h-5.53ZM344.51,351.72h-3.56v-16.41h3.56v16.41Z"/>
      <path class="st0" d="M350.86,345.26v-2.7h3.33v-.83c-.93-.18-1.67-.52-2.23-1.02-.56-.5-.84-1.2-.84-2.1,0-.58.12-1.08.36-1.49.24-.41.57-.75,1-1.02.42-.26.93-.46,1.52-.58.59-.12,1.23-.18,1.93-.18s1.34.06,1.93.18c.59.12,1.1.32,1.53.58.43.27.76.6,1,1.02.24.41.36.91.36,1.49,0,.89-.27,1.59-.82,2.08s-1.28.84-2.18,1.02v.85h3.49v2.7h-10.38ZM358.66,352.49c-1.09,0-2.06-.06-2.92-.17-.86-.12-1.59-.3-2.19-.56s-1.06-.59-1.38-1.01c-.32-.41-.48-.92-.48-1.51s.16-1.1.48-1.5c.32-.41.78-.74,1.38-1s1.33-.45,2.19-.56c.86-.12,1.83-.17,2.92-.17s2.05.06,2.91.17c.86.12,1.6.3,2.2.56s1.06.59,1.38,1c.32.41.48.91.48,1.5s-.16,1.1-.48,1.51c-.32.41-.78.75-1.38,1.01s-1.33.45-2.2.56c-.87.12-1.84.17-2.91.17ZM355.93,339.3c.37,0,.7-.04.99-.14.29-.09.44-.28.44-.56,0-.26-.15-.44-.44-.55-.29-.11-.62-.17-.99-.17s-.69.05-.97.16c-.28.1-.42.29-.42.56s.14.47.42.56c.28.09.6.14.97.14ZM358.66,349.93c.5,0,.96-.01,1.38-.04.42-.03.78-.07,1.08-.12.3-.05.54-.12.7-.21.17-.09.25-.2.25-.33s-.08-.24-.25-.33c-.17-.09-.4-.16-.7-.21-.3-.05-.66-.09-1.08-.12-.42-.03-.88-.04-1.38-.04s-.96.01-1.38.04c-.42.03-.78.07-1.08.12-.3.05-.54.12-.7.21-.17.09-.25.2-.25.33s.08.24.25.33c.17.09.4.16.7.21.3.05.66.09,1.08.12.42.03.88.04,1.38.04ZM365.47,335.31v3.24h1.49v3.34h-1.49v3.61h-3.56v-10.18h3.56Z"/>
      <path class="st0" d="M367.79,342.06h14.86v3.34h-5.65v.99h4.81v5.72h-3.56v-2.41h-9.62v-3.32h4.81v-.99h-5.65v-3.34ZM378.07,338.84h-9.28v-3.33h12.83v5.8h-3.56v-2.46Z"/>
      <path class="st0" d="M394.57,347.99v3.32h-10.72v-3.32h10.72ZM384.1,340.95c0-.89.12-1.7.36-2.41.24-.72.58-1.33,1.01-1.83s.96-.89,1.57-1.16c.61-.27,1.29-.41,2.04-.41s1.42.14,2.04.41c.61.27,1.14.66,1.57,1.16s.77,1.12,1.01,1.83c.24.72.36,1.52.36,2.41s-.12,1.67-.36,2.39-.58,1.32-1.01,1.82c-.44.5-.96.89-1.57,1.16-.61.27-1.29.41-2.04.41s-1.42-.14-2.04-.41c-.61-.27-1.14-.66-1.57-1.16-.44-.5-.77-1.11-1.01-1.82-.24-.71-.36-1.51-.36-2.39ZM389.09,343.42c.44,0,.78-.21,1.04-.63.26-.42.39-1.03.39-1.83s-.13-1.45-.39-1.86c-.26-.41-.6-.62-1.04-.62-.95,0-1.43.83-1.43,2.48,0,.81.12,1.43.37,1.84.25.41.6.62,1.06.62ZM398.79,351.72h-3.56v-16.41h3.56v16.41Z"/>
      <path class="st0" d="M412.29,336.67h3.33v3.34h-3.35c-.01.45-.06.89-.15,1.32l3.81,2.7-1.75,2.77-3.49-2.54c-.52.61-1.15,1.12-1.89,1.54-.75.42-1.59.75-2.53,1l-1.36-2.93c1.09-.22,1.97-.66,2.65-1.31.68-.65,1.06-1.5,1.15-2.55h-3.32v-3.34h3.33v-1.9h3.56v1.9ZM408.65,347.99v-1.92h3.56v1.92h3.66v3.32h-10.72v-3.32h3.5ZM420.09,351.72h-3.56v-16.41h3.56v16.41Z"/>
      <path class="st0" d="M430.92,335.5v3.12h-2.82v.66c0,.14,0,.28-.02.43-.01.14-.03.28-.05.43l3.54,2.17-1.92,2.77-2.87-2.08c-.93,1.09-2.26,1.78-4,2.08l-1.53-2.93c1.08-.23,1.9-.57,2.46-1.01.56-.44.84-1.07.84-1.88v-.64h-2.65v-3.12h9.02ZM433.03,352.1v-2.79h-10.02v-3.32h13.57v6.11h-3.56ZM436.58,335.31v10.01h-3.56v-4.17l-1.72.43v-3.67l1.72-.43v-2.17h3.56Z"/>
      <path class="st0" d="M448.44,335.7v3.34h-3.33v3.63c0,.87-.08,1.67-.22,2.42l4.05,3.43-1.77,2.97-3.57-3.08c-.48.72-1.08,1.35-1.79,1.87-.72.52-1.56.93-2.53,1.21l-1.53-2.93c1.31-.41,2.27-1.09,2.89-2.03.62-.94.93-2.23.93-3.89v-3.61h-3.16v-3.34h10.05ZM453.08,351.72h-3.56v-16.41h3.56v16.41Z"/>
      <path class="st0" d="M454.76,340.37c0-.79.13-1.5.38-2.12s.6-1.16,1.05-1.6c.45-.44.98-.77,1.6-1,.62-.23,1.3-.34,2.04-.34s1.43.11,2.04.34c.62.23,1.15.56,1.6,1,.45.44.8.97,1.05,1.6s.38,1.33.38,2.12-.13,1.49-.38,2.11c-.25.62-.6,1.15-1.05,1.58-.45.43-.98.77-1.6,1-.62.23-1.3.35-2.04.35s-1.43-.12-2.04-.35c-.62-.23-1.15-.57-1.6-1-.45-.43-.8-.96-1.05-1.58-.25-.62-.38-1.33-.38-2.11ZM459.55,346.38v2.41h10.19v3.32h-13.74v-5.72h3.56ZM459.83,342.27c.21,0,.41-.04.61-.13.2-.08.38-.21.53-.37.15-.16.28-.36.38-.59.1-.23.15-.5.15-.81s-.05-.58-.15-.82c-.1-.24-.22-.44-.38-.6-.16-.16-.33-.29-.53-.37-.2-.08-.4-.13-.61-.13s-.41.04-.61.13c-.2.08-.38.21-.53.37-.15.16-.28.36-.38.6s-.15.51-.15.82.05.58.15.81c.1.23.22.43.38.59.16.16.33.28.53.37.2.08.4.13.61.13ZM469.57,335.31v11.77h-3.56v-11.77h3.56Z"/>
      <path class="st0" d="M476.35,343.28h5.65v-.97c-.76-.06-1.43-.18-2.03-.34-.59-.16-1.1-.38-1.51-.67-.41-.28-.73-.63-.94-1.05s-.33-.91-.33-1.49c0-.67.15-1.24.46-1.71.31-.46.75-.84,1.31-1.13.57-.29,1.26-.5,2.07-.62s1.73-.18,2.75-.18,1.92.06,2.73.18c.81.12,1.51.33,2.08.62.57.29,1.01.67,1.31,1.13.3.47.46,1.04.46,1.71,0,.58-.11,1.08-.33,1.5-.22.42-.53.77-.95,1.06-.41.29-.92.51-1.51.67-.6.16-1.27.28-2.03.34v.95h5.65v3.34h-14.86v-3.34ZM480.75,347.35v1.44h9.79v3.32h-13.35v-4.75h3.56ZM483.79,339.62c.97,0,1.72-.05,2.24-.17.52-.11.78-.34.78-.69s-.26-.58-.78-.7-1.27-.17-2.24-.17-1.72.06-2.25.17-.79.35-.79.7.26.58.79.69c.53.11,1.28.17,2.25.17Z"/>
      <path class="st0" d="M496.62,335.7v12.49h5.53v3.34h-9.09v-15.83h3.56ZM507.36,351.72h-3.56v-16.41h3.56v16.41Z"/>
      <path class="st0" d="M514.14,344.52v-2.58h14.86v2.58h-14.86ZM524.61,347.62v-.48h-9.62v-2h13.18v4.48h-9.62v.48h9.79v2h-13.35v-4.48h9.62ZM518.71,336.12h5.72v-.62h3.56v5.82h-12.83v-5.82h3.56v.62ZM524.43,338.39h-5.72v.66h5.72v-.66Z"/>
      <path class="st0" d="M530.64,346.38h14.86v3.34h-5.65v2.6h-3.56v-2.6h-5.65v-3.34ZM531.48,338.45v-2.75h13.18v6.21h-9.62v.72h9.79v2.75h-13.35v-6.23h9.6v-.7h-9.6Z"/>
      <path class="st0" d="M556.87,344.6l-1,.39c-.07,1.29-.24,2.37-.51,3.23-.27.86-.61,1.55-1.01,2.07-.41.52-.87.89-1.38,1.11s-1.04.33-1.61.33c-.61,0-1.19-.13-1.74-.39s-1.03-.7-1.44-1.32c-.41-.62-.74-1.45-.99-2.49-.25-1.04-.37-2.34-.37-3.91s.12-2.87.37-3.91.58-1.87.99-2.49c.41-.62.89-1.06,1.44-1.32s1.13-.39,1.74-.39c.53,0,1.03.1,1.51.29.48.19.92.52,1.31.97.4.45.73,1.05,1,1.8.28.75.47,1.68.58,2.79l1.08-.43v-5.62h3.33v16.41h-3.33v-7.12ZM550.15,343.61c0,1,.04,1.8.11,2.42.07.62.17,1.11.29,1.45.12.35.25.59.4.71.14.12.28.18.42.18s.28-.06.42-.18c.14-.12.27-.36.39-.7.12-.34.21-.83.28-1.45.07-.63.11-1.45.11-2.45s-.04-1.8-.11-2.42c-.08-.62-.17-1.1-.28-1.44-.11-.34-.24-.58-.39-.7-.14-.12-.28-.18-.42-.18s-.28.06-.42.18c-.14.12-.28.36-.4.71-.12.35-.22.83-.29,1.45-.07.62-.11,1.43-.11,2.42ZM560.94,351.72v-16.41h3.35v16.41h-3.35Z"/>
      <path class="st0" d="M569.85,339.69c0-.67.12-1.28.35-1.82.24-.54.57-1,1-1.38.44-.37.96-.67,1.59-.87.62-.21,1.33-.31,2.12-.31s1.5.1,2.12.31,1.15.5,1.59.87c.43.38.77.83,1,1.38.23.54.35,1.15.35,1.82s-.12,1.26-.35,1.8c-.24.54-.57,1-1,1.38-.44.38-.97.67-1.59.87s-1.33.31-2.12.31-1.5-.1-2.12-.31c-.62-.21-1.15-.5-1.59-.87-.43-.38-.77-.83-1-1.38-.23-.54-.35-1.14-.35-1.8ZM574.65,344.91v1.03h6.46v-1.03h3.56v7.2h-13.57v-7.2h3.56ZM574.92,341.11c.52,0,.92-.13,1.22-.4s.45-.6.45-1.02c0-.44-.15-.79-.45-1.05s-.7-.39-1.22-.39-.92.13-1.22.39-.45.61-.45,1.05c0,.41.15.75.45,1.02s.7.4,1.22.4ZM581.11,349.54v-1.05h-6.46v1.05h6.46ZM584.66,335.31v8.92h-3.56v-8.92h3.56Z"/>
      <path class="st0" d="M593.01,338.32c0,.39-.03.76-.1,1.12l3.57,2.48-1.92,2.77-3.18-2.21c-.48.49-1.06.93-1.73,1.31-.67.38-1.44.68-2.31.9l-1.53-2.93c.57-.12,1.08-.29,1.54-.52.45-.23.83-.5,1.14-.8.31-.3.55-.64.71-1.01.17-.37.25-.75.25-1.13v-3.03h3.56v3.04ZM594.38,352.49c-1.12,0-2.12-.07-3.01-.21-.88-.14-1.63-.36-2.23-.65-.61-.29-1.07-.67-1.39-1.12s-.48-1.01-.48-1.66.16-1.18.48-1.64c.32-.46.78-.84,1.39-1.13.61-.3,1.35-.51,2.23-.65s1.88-.2,3.01-.2,2.12.07,3.01.2c.88.14,1.63.35,2.23.65.61.3,1.07.68,1.39,1.13.32.46.48,1.01.48,1.64s-.16,1.2-.48,1.66-.78.83-1.39,1.12c-.61.29-1.35.51-2.23.65-.88.14-1.88.21-3.01.21ZM594.38,349.74c1.1,0,1.97-.07,2.6-.21.64-.14.95-.37.95-.68s-.32-.54-.95-.68c-.64-.14-1.5-.21-2.6-.21s-1.97.07-2.6.21c-.64.14-.95.37-.95.68s.32.54.95.68c.64.14,1.5.21,2.6.21ZM594.93,340.51v-3.47l2.66-.66v-1.07h3.56v9.62h-3.56v-5.08l-2.66.66Z"/>
      <path class="st0" d="M603.52,347.24v-11.77h3.56v11.77h-3.56ZM603.52,352.1v-3.82h3.56v3.82h-3.56Z"/>
      <path class="st0" d="M278.8,381.54v-2.58h14.86v2.58h-14.86ZM289.26,384.65v-.48h-9.62v-2h13.18v4.48h-9.62v.48h9.79v2h-13.35v-4.48h9.62ZM283.37,373.15h5.72v-.62h3.56v5.82h-12.83v-5.82h3.56v.62ZM289.09,375.42h-5.72v.66h5.72v-.66Z"/>
      <path class="st0" d="M295.29,383.41h14.86v3.34h-5.65v2.6h-3.56v-2.6h-5.65v-3.34ZM296.13,375.47v-2.75h13.18v6.21h-9.62v.72h9.79v2.75h-13.35v-6.23h9.6v-.7h-9.6Z"/>
      <path class="st0" d="M320.84,388.74v-6.85l-.94.37v6.28h-7.88v-15.83h3.33v4.65h1.22v-4.65h3.33v5.88l.94-.37v-5.9h3.33v16.41h-3.33ZM316.56,380.71h-1.22v4.5h1.22v-4.5ZM328.26,388.74h-3.35v-16.41h3.35v16.41Z"/>
      <path class="st0" d="M330.22,376.06v-3.34h9.09v9.64h-5.53v2.85h5.88v3.34h-9.43v-9.52h5.53v-2.97h-5.53ZM344.51,388.74h-3.56v-16.41h3.56v16.41Z"/>
      <path class="st0" d="M351.52,375.86v-3.33h9.09v7.78h-3.56v-4.44h-5.53ZM362.25,384.05v-.58h-10.01v-2.25h13.57v5.08h-10v.58h10.17v2.25h-13.74v-5.08h10.01ZM365.81,372.33v8.2h-3.56v-8.2h3.56Z"/>
      <path class="st0" d="M376.75,372.53v9.72h-8.74v-9.72h8.74ZM372.29,383.41v2.41h9.67v3.32h-13.23v-5.72h3.56ZM373.39,379.1v-3.43h-2.01v3.43h2.01ZM381.79,378.52v5.58h-3.56v-11.77h3.56v2.85h1.49v3.34h-1.49Z"/>
      <path class="st0" d="M389.31,375.86v-3.33h8.74v7.78h-3.56v-4.44h-5.19ZM400.05,384.05v-.58h-10.02v-2.25h13.57v5.08h-10.01v.58h10.19v2.25h-13.74v-5.08h10.02ZM398.48,378.21v-3.67l1.56-.39v-1.82h3.56v8.2h-3.56v-2.71l-1.56.39Z"/>
      <path class="st0" d="M405.58,381.45v-2.58h14.86v2.58h-14.86ZM406.42,375.3c0-.58.15-1.07.46-1.47.31-.4.75-.73,1.31-.98.57-.25,1.26-.43,2.07-.54.81-.11,1.73-.17,2.75-.17s1.92.06,2.73.17c.81.11,1.51.29,2.08.54.57.25,1.01.58,1.31.98.3.4.46.89.46,1.47s-.15,1.06-.46,1.45c-.3.38-.74.69-1.31.91-.57.23-1.26.38-2.07.47s-1.73.13-2.75.13-1.94-.04-2.75-.13-1.5-.24-2.07-.47c-.57-.23-1-.53-1.31-.91-.31-.38-.46-.86-.46-1.45ZM416.04,384.65v-.48h-9.62v-2h13.18v4.48h-9.62v.48h9.79v2h-13.35v-4.48h9.62ZM413.02,375.79c.97,0,1.72-.03,2.24-.08.52-.05.78-.19.78-.41s-.26-.36-.78-.42c-.52-.06-1.27-.09-2.24-.09s-1.72.03-2.25.09c-.53.06-.79.2-.79.42s.26.36.79.41c.53.05,1.28.08,2.25.08Z"/>
      <path class="st0" d="M437.34,384.65v-.48h-9.62v-2h4.81v-.62h-5.65v-2.58h14.86v2.58h-5.65v.62h4.81v4.48h-9.62v.48h9.79v2h-13.35v-4.48h9.62ZM440.72,372.53v2.58h-4.64c-.02.1-.05.17-.07.21l5.12,1.01-.94,2.44-6.18-1.3c-.72.38-1.57.67-2.53.87-.97.21-1.99.36-3.07.45l-.93-2.46c1.36-.1,2.46-.25,3.3-.43.84-.18,1.41-.45,1.72-.79h-4.6v-2.58h12.83Z"/>
      <path class="st0" d="M447.89,376.41c0-.67.12-1.26.36-1.77s.58-.94,1-1.28.95-.6,1.55-.77c.6-.17,1.26-.25,1.98-.25s1.38.08,1.98.25c.6.17,1.12.42,1.55.77s.76.77,1,1.28.36,1.1.36,1.77-.12,1.26-.36,1.77c-.24.5-.58.93-1,1.27-.43.34-.95.6-1.55.77-.6.17-1.26.25-1.98.25s-1.38-.08-1.98-.25c-.6-.17-1.12-.42-1.55-.77-.43-.34-.76-.77-1-1.27-.24-.5-.36-1.09-.36-1.77ZM458.62,384.05v-.58h-9.5v-2.25h13.06v5.08h-9.5v.58h9.67v2.25h-13.23v-5.08h9.5ZM452.78,377.61c.45,0,.81-.1,1.08-.29.28-.19.41-.5.41-.91s-.14-.7-.41-.91c-.27-.21-.64-.31-1.08-.31s-.79.1-1.07.31c-.27.21-.41.51-.41.91s.14.72.41.91c.28.19.63.29,1.07.29ZM462.18,377.94v2.6h-3.56v-8.2h3.56v2.27h1.5v3.34h-1.5Z"/>
      <path class="st0" d="M464.38,377.01c0-.72.11-1.37.34-1.95.23-.58.56-1.07.99-1.47s.94-.72,1.55-.93c.6-.21,1.27-.32,2.02-.32s1.42.11,2.02.32c.6.21,1.12.52,1.55.93s.76.9.99,1.47c.23.58.34,1.23.34,1.95s-.11,1.35-.34,1.93c-.23.58-.56,1.06-.99,1.46-.43.4-.94.71-1.55.93s-1.27.33-2.02.33-1.42-.11-2.02-.33-1.12-.53-1.55-.93c-.43-.4-.76-.89-.99-1.46-.23-.58-.34-1.22-.34-1.93ZM477.14,383.04c0,.67-.08,1.32-.24,1.94l3.13,1.07-1.31,2.95-3.26-1.2c-.49.56-1.06,1.01-1.7,1.37-.64.36-1.32.6-2.04.75l-1.41-2.46c.71-.16,1.31-.39,1.8-.7l-1.89-.64c-.5.68-1.14,1.25-1.9,1.71-.76.45-1.57.77-2.43.95l-1.25-2.75c1.01-.21,1.79-.58,2.35-1.12.56-.54.84-1.16.84-1.84v-.62h3.38v.87c0,.08,0,.16-.02.23l2.44.85c.08-.37.12-.82.12-1.34v-.62h3.38v.62ZM469.27,378.52c.42,0,.78-.14,1.07-.41.29-.27.43-.64.43-1.11,0-.49-.14-.87-.43-1.13-.29-.26-.64-.4-1.07-.4s-.78.13-1.07.4c-.29.27-.43.64-.43,1.13,0,.47.14.83.43,1.11s.64.41,1.07.41ZM478.67,378.33v3.41h-3.56v-9.41h3.56v2.66h1.5v3.33h-1.5Z"/>
      <path class="st0" d="M484.75,375.86v3.04h4.95v3.34h-8.31v-9.72h8.31v3.33h-4.95ZM485.66,383.41v2.41h10.19v3.32h-13.74v-5.72h3.56ZM490.15,379.18v-3.67l1.98-.49v-2.7h3.56v11.77h-3.56v-5.41l-1.98.48Z"/>
      <path class="st0" d="M512.34,372.53v3.12h-3.33v.66c0,.26-.02.5-.05.74l3.87,2.29-1.92,2.77-3.28-2.27c-.53.58-1.17,1.07-1.92,1.46s-1.6.66-2.53.81l-1.53-2.93c.53-.12,1.02-.25,1.49-.42.46-.16.87-.36,1.21-.59.34-.23.62-.5.82-.81.2-.3.3-.66.3-1.08v-.64h-3.16v-3.12h10.05ZM513.42,389.13v-2.79h-10.02v-3.32h13.57v6.11h-3.56ZM516.98,372.33v10.01h-3.56v-10.01h3.56Z"/>
      <path class="st0" d="M528.49,372.53v3.12h-3.16v.27c0,.26-.02.51-.05.76l3.69,2.27-1.92,2.77-3.06-2.21c-.5.57-1.12,1.04-1.86,1.42-.73.38-1.56.64-2.47.79l-1.53-2.93c.53-.12,1.01-.25,1.46-.42.45-.16.83-.36,1.16-.59.33-.23.58-.5.76-.8s.27-.66.27-1.08v-.25h-2.99v-3.12h9.71ZM526.44,389.52c-1.09,0-2.06-.07-2.9-.21-.85-.14-1.56-.36-2.15-.65s-1.03-.67-1.34-1.12c-.31-.46-.46-1.01-.46-1.66s.15-1.18.46-1.64c.31-.46.76-.84,1.34-1.13.58-.3,1.3-.51,2.15-.65s1.82-.2,2.9-.2,2.04.07,2.89.2c.85.14,1.57.35,2.16.65.58.3,1.03.68,1.34,1.13.31.46.46,1.01.46,1.64s-.15,1.2-.46,1.66-.76.83-1.34,1.12-1.3.51-2.16.65c-.85.14-1.82.21-2.89.21ZM526.44,386.76c1.01,0,1.81-.07,2.41-.21.6-.14.89-.37.89-.68s-.3-.54-.89-.68c-.6-.14-1.4-.21-2.41-.21s-1.81.07-2.4.21c-.6.14-.89.37-.89.68s.3.54.89.68c.59.14,1.4.21,2.4.21ZM532.95,378.33v3.61h-3.56v-9.6h3.56v2.66h1.5v3.33h-1.5Z"/>
      <path class="st0" d="M545.77,375.53c0,.32-.02.64-.05.95l3.18,2.46-1.92,2.77-2.61-2.02c-.8.91-1.94,1.58-3.4,2.02l-1.53-2.93c.93-.22,1.66-.59,2.2-1.11.54-.52.81-1.24.81-2.17v-3.18h3.33v3.2ZM548.98,389.52c-2.6,0-4.6-.29-6-.86-1.4-.58-2.1-1.5-2.1-2.78,0-.63.18-1.18.53-1.64.35-.46.88-.84,1.56-1.13.69-.3,1.53-.51,2.54-.65s2.16-.2,3.45-.2,2.45.07,3.45.2c1.01.14,1.85.35,2.54.65.69.3,1.21.68,1.56,1.13.35.46.53,1.01.53,1.64s-.18,1.2-.53,1.66c-.36.46-.88.83-1.56,1.12s-1.54.51-2.54.65c-1.01.14-2.16.21-3.45.21ZM548.98,386.76c1.44,0,2.56-.07,3.35-.21.79-.14,1.19-.37,1.19-.68s-.4-.54-1.19-.68c-.79-.14-1.91-.21-3.35-.21s-2.56.07-3.35.21c-.79.14-1.19.37-1.19.68s.39.54,1.19.68c.79.14,1.91.21,3.35.21ZM549.14,381.74v-9.41h3.33v2.71l.91-.35v-2.37h3.35v9.6h-3.35v-3.57l-.91.35v3.03h-3.33Z"/>
      <path class="st0" d="M558.03,381.99v-2.11h3.33v-.52c-.97-.1-1.69-.32-2.14-.65-.45-.33-.68-.8-.68-1.43,0-.78.37-1.33,1.12-1.66s1.93-.49,3.56-.49,2.83.16,3.58.49,1.12.88,1.12,1.66c0,.63-.24,1.11-.72,1.44-.48.32-1.24.54-2.28.64v.52h3.49v2.11h-10.38ZM565.01,372.57h3.33v2.15h-10.22v-2.15h3.33v-.97h3.56v.97ZM569.08,384.9v-.45h-10.07v-1.88h13.62v4.23h-10.07v.45h10.24v1.88h-13.79v-4.23h10.07ZM563.22,376.91c-.17,0-.35,0-.54.02-.19.01-.36.03-.51.06-.16.03-.28.06-.38.11-.1.05-.15.11-.15.18s.05.14.15.18c.1.04.22.08.38.12.15.03.33.05.51.07.19.01.37.02.54.02s.35,0,.54-.02c.19-.01.36-.03.51-.06.16-.03.28-.06.39-.12s.15-.12.15-.19-.05-.14-.15-.18c-.1-.04-.23-.08-.4-.12-.16-.03-.33-.05-.51-.06-.18,0-.36,0-.53,0ZM572.64,378.71v3.37h-3.56v-9.75h3.56v3.04h1.5v3.34h-1.5Z"/>
      <path class="st0" d="M574.96,381.45v-2.58h14.86v2.58h-14.86ZM575.8,375.3c0-.58.15-1.07.46-1.47.31-.4.75-.73,1.31-.98.57-.25,1.26-.43,2.07-.54.81-.11,1.73-.17,2.75-.17s1.92.06,2.73.17c.81.11,1.51.29,2.08.54.57.25,1.01.58,1.31.98.3.4.46.89.46,1.47s-.15,1.06-.46,1.45c-.3.38-.74.69-1.31.91-.57.23-1.26.38-2.07.47s-1.73.13-2.75.13-1.94-.04-2.75-.13-1.5-.24-2.07-.47c-.57-.23-1-.53-1.31-.91-.31-.38-.46-.86-.46-1.45ZM585.42,384.65v-.48h-9.62v-2h13.18v4.48h-9.62v.48h9.79v2h-13.35v-4.48h9.62ZM582.39,375.79c.97,0,1.72-.03,2.24-.08.52-.05.78-.19.78-.41s-.26-.36-.78-.42c-.52-.06-1.27-.09-2.24-.09s-1.72.03-2.25.09c-.53.06-.79.2-.79.42s.26.36.79.41c.53.05,1.28.08,2.25.08Z"/>
      <path class="st0" d="M606.1,380.63c0,1.56-.15,2.87-.44,3.91-.29,1.04-.68,1.87-1.15,2.49-.48.62-1.02,1.06-1.62,1.32-.61.26-1.23.39-1.86.39s-1.27-.13-1.87-.39c-.61-.26-1.15-.7-1.62-1.32-.47-.62-.86-1.45-1.14-2.49-.29-1.04-.43-2.34-.43-3.91s.14-2.87.43-3.91.67-1.87,1.14-2.49c.48-.62,1.02-1.06,1.62-1.32.61-.26,1.23-.39,1.87-.39s1.25.13,1.86.39c.61.26,1.15.7,1.62,1.32.48.62.86,1.45,1.15,2.49s.44,2.34.44,3.91ZM599.5,380.63c0,1,.04,1.8.12,2.42.08.62.19,1.11.33,1.45.14.35.31.59.49.71.18.12.38.18.58.18.19,0,.38-.06.57-.18.18-.12.34-.36.48-.7.14-.34.25-.83.33-1.45s.13-1.45.13-2.45-.04-1.8-.13-2.42c-.09-.62-.2-1.1-.33-1.44s-.3-.58-.48-.7c-.18-.12-.37-.18-.57-.18-.21,0-.4.06-.58.18-.18.12-.35.36-.49.71-.14.35-.26.83-.33,1.45-.08.62-.12,1.43-.12,2.42ZM610.77,388.74h-3.56v-16.41h3.56v16.41Z"/>
      <path class="st0" d="M627.26,388.74h-3.56v-6.88l-1.55.58c-.11,1.2-.33,2.21-.64,3.02-.32.81-.7,1.45-1.14,1.94-.45.49-.93.83-1.45,1.04-.52.21-1.05.31-1.57.31-.6,0-1.19-.13-1.77-.39s-1.11-.7-1.57-1.32c-.46-.62-.84-1.45-1.13-2.49-.29-1.04-.43-2.34-.43-3.91s.14-2.87.43-3.91.66-1.87,1.13-2.49c.46-.62.99-1.06,1.57-1.32s1.17-.39,1.77-.39c.52,0,1.04.1,1.56.31.53.21,1.01.55,1.45,1.04.44.48.82,1.12,1.14,1.92s.54,1.79.65,2.98l1.55-.58v-5.86h3.56v16.41ZM615.99,380.63c0,1,.04,1.8.12,2.42.08.62.18,1.11.31,1.45.13.35.27.59.44.71.17.12.33.18.49.18.15,0,.3-.06.46-.18.16-.12.31-.36.44-.7.13-.34.24-.83.32-1.45s.12-1.45.12-2.45-.04-1.8-.12-2.42c-.08-.62-.19-1.1-.32-1.44-.13-.34-.28-.58-.44-.7s-.32-.18-.46-.18c-.16,0-.32.06-.49.18s-.31.36-.44.71c-.13.35-.23.83-.31,1.45-.08.62-.12,1.43-.12,2.42Z"/>
      <path class="st0" d="M629.46,375.86v-3.33h8.74v7.78h-3.56v-4.44h-5.19ZM639.68,384.05v-.58h-9.5v-2.25h13.06v5.08h-9.5v.58h9.67v2.25h-13.23v-5.08h9.5ZM643.24,377.94v2.6h-3.56v-8.2h3.56v2.27h1.5v3.34h-1.5Z"/>
      <path class="st0" d="M661,384.65v-.48h-9.62v-2h4.81v-.62h-5.65v-2.58h14.86v2.58h-5.65v.62h4.81v4.48h-9.62v.48h9.79v2h-13.35v-4.48h9.62ZM664.39,372.53v2.58h-4.64c-.02.1-.05.17-.07.21l5.12,1.01-.94,2.44-6.18-1.3c-.72.38-1.57.67-2.53.87-.97.21-1.99.36-3.07.45l-.93-2.46c1.36-.1,2.46-.25,3.3-.43.84-.18,1.41-.45,1.72-.79h-4.6v-2.58h12.83Z"/>
      <path class="st0" d="M278.51,413.43c0-.67.12-1.26.36-1.77.24-.51.58-.94,1-1.28.43-.34.94-.6,1.55-.77.6-.17,1.26-.25,1.98-.25s1.38.08,1.98.25c.6.17,1.12.42,1.55.77.43.34.76.77,1,1.28.24.51.36,1.1.36,1.77s-.12,1.26-.36,1.77c-.24.5-.58.93-1,1.27-.43.34-.94.6-1.55.77-.6.17-1.26.25-1.98.25s-1.38-.08-1.98-.25c-.6-.17-1.12-.42-1.55-.77-.43-.34-.76-.77-1-1.27-.24-.5-.36-1.09-.36-1.77ZM289.25,421.07v-.58h-9.5v-2.25h13.06v5.08h-9.5v.58h9.67v2.25h-13.23v-5.08h9.5ZM283.4,414.63c.45,0,.81-.1,1.08-.29.27-.19.41-.5.41-.91s-.14-.7-.41-.91-.64-.31-1.08-.31-.79.1-1.06.31-.41.51-.41.91.14.72.41.91c.27.19.63.29,1.06.29ZM292.8,414.96v2.6h-3.56v-8.2h3.56v2.27h1.49v3.34h-1.49Z"/>
      <path class="st0" d="M295,414.03c0-.72.11-1.37.34-1.95s.56-1.07.99-1.47.94-.72,1.55-.93c.6-.21,1.27-.32,2.02-.32s1.42.11,2.02.32c.6.21,1.12.52,1.55.93.43.41.76.9.99,1.47s.34,1.23.34,1.95-.11,1.35-.34,1.93-.56,1.06-.99,1.46c-.43.4-.94.71-1.55.93s-1.27.33-2.02.33-1.42-.11-2.02-.33c-.6-.22-1.12-.53-1.55-.93-.43-.4-.76-.89-.99-1.46s-.34-1.22-.34-1.93ZM307.76,420.06c0,.67-.08,1.32-.24,1.94l3.13,1.07-1.31,2.95-3.26-1.2c-.49.56-1.06,1.01-1.7,1.37-.64.36-1.32.6-2.04.75l-1.41-2.46c.71-.16,1.31-.39,1.8-.7l-1.89-.64c-.5.68-1.14,1.25-1.9,1.71-.76.45-1.57.77-2.43.95l-1.25-2.75c1.01-.21,1.79-.58,2.35-1.12s.84-1.16.84-1.84v-.62h3.38v.87c0,.08,0,.16-.02.23l2.44.85c.08-.37.12-.82.12-1.34v-.62h3.38v.62ZM299.9,415.54c.42,0,.78-.14,1.06-.41s.43-.64.43-1.11c0-.49-.14-.87-.43-1.13-.29-.26-.64-.4-1.06-.4s-.78.13-1.06.4c-.29.27-.43.64-.43,1.13,0,.47.14.83.43,1.11.29.27.64.41,1.06.41ZM309.29,415.35v3.41h-3.56v-9.41h3.56v2.66h1.49v3.33h-1.49Z"/>
      <path class="st0" d="M311.78,422.43h14.86v3.34h-14.86v-3.34ZM312.45,415.25c0-.94.18-1.77.54-2.49s.85-1.32,1.46-1.79c.61-.48,1.33-.84,2.15-1.08s1.69-.36,2.6-.36,1.78.12,2.6.36,1.54.6,2.16,1.08c.62.48,1.11,1.08,1.47,1.79s.54,1.55.54,2.49-.18,1.79-.54,2.5-.85,1.31-1.47,1.78c-.62.48-1.34.84-2.16,1.08s-1.69.36-2.6.36-1.78-.12-2.6-.36-1.53-.6-2.15-1.08-1.1-1.07-1.46-1.78-.54-1.54-.54-2.5ZM316.01,415.25c0,.78.29,1.37.87,1.77.58.41,1.35.61,2.33.61s1.74-.2,2.33-.61.88-1,.88-1.77-.29-1.37-.88-1.77-1.37-.61-2.33-.61-1.75.2-2.33.61c-.58.41-.87,1-.87,1.77Z"/>
      <path class="st0" d="M332.05,409.75v12.49h5.19v3.34h-8.74v-15.83h3.56ZM342.27,415.04h1.49v3.33h-1.49v7.39h-3.56v-16.41h3.56v5.68Z"/>
      <path class="st0" d="M355.09,416.71c0,.96-.07,1.88-.21,2.77l3.33,3.28-1.92,2.77-2.65-2.64c-.37.57-.82,1.08-1.37,1.52-.55.45-1.21.82-1.99,1.12l-1.53-2.93c.6-.27,1.08-.59,1.47-.95.38-.36.69-.78.92-1.26s.39-1.02.48-1.63c.09-.61.14-1.3.14-2.08v-7.18h3.33v7.2ZM358.63,425.76v-8.59l-2.08.79v-3.67l2.08-.79v-4.15h3.33v16.41h-3.33ZM366.05,425.76h-3.35v-16.41h3.35v16.41Z"/>
      <path class="st0" d="M378.74,421.56v-.5h-10.41v-2.04h2.53v-.68h-3.5v-2.5h10.72v2.5h-3.66v.68h7.88v4.6h-10.41v.5h10.58v2.04h-14.14v-4.6h10.41ZM367.61,412.38c0-.58.13-1.07.39-1.45.26-.39.61-.7,1.06-.92.45-.23.97-.39,1.58-.48.61-.1,1.26-.15,1.96-.15,1.04,0,1.97.11,2.78.33.81.22,1.41.61,1.8,1.18l1.56-.41v-1.12h3.56v9.13h-3.56v-4.67l-1.98.5c-.45.39-1.03.66-1.76.81-.73.16-1.53.23-2.41.23-.7,0-1.35-.05-1.96-.15-.61-.1-1.13-.26-1.58-.48s-.8-.53-1.06-.91c-.26-.38-.39-.86-.39-1.44ZM372.59,413c.45,0,.82-.04,1.13-.13.31-.08.46-.25.46-.49,0-.22-.15-.38-.46-.48-.31-.1-.69-.16-1.13-.16s-.8.05-1.11.15c-.3.1-.46.26-.46.49,0,.25.15.41.46.49.3.08.67.13,1.11.13Z"/>
      <path class="st0" d="M394.12,417.66c0,1.56-.15,2.87-.44,3.91-.29,1.04-.68,1.87-1.15,2.49-.48.62-1.02,1.06-1.62,1.32-.61.26-1.23.39-1.86.39s-1.27-.13-1.87-.39c-.61-.26-1.15-.7-1.62-1.32-.48-.62-.86-1.45-1.14-2.49-.29-1.04-.43-2.34-.43-3.91s.14-2.87.43-3.91c.29-1.04.67-1.87,1.14-2.49.48-.62,1.02-1.06,1.62-1.32.61-.26,1.23-.39,1.87-.39s1.25.13,1.86.39c.61.26,1.15.7,1.62,1.32.48.62.86,1.45,1.15,2.49s.44,2.34.44,3.91ZM387.52,417.66c0,1,.04,1.8.12,2.42.08.62.19,1.11.33,1.45.14.35.31.59.49.71.18.12.38.18.58.18.19,0,.38-.06.57-.18.18-.12.34-.36.48-.7.14-.34.25-.83.33-1.45s.13-1.45.13-2.45-.04-1.8-.13-2.42c-.09-.62-.2-1.1-.33-1.44s-.3-.58-.48-.7c-.18-.12-.37-.18-.57-.18-.21,0-.4.06-.58.18-.18.12-.35.36-.49.71-.14.35-.26.83-.33,1.45-.08.62-.12,1.43-.12,2.42ZM398.79,425.76h-3.56v-16.41h3.56v16.41Z"/>
      <path class="st0" d="M415.45,409.75v3.34h-3.33v3.63c0,.87-.08,1.67-.22,2.42l4.05,3.43-1.77,2.97-3.57-3.08c-.48.72-1.08,1.35-1.79,1.87-.72.52-1.56.93-2.53,1.21l-1.53-2.93c1.31-.41,2.27-1.09,2.89-2.03.62-.94.93-2.23.93-3.89v-3.61h-3.16v-3.34h10.05ZM420.09,425.76h-3.56v-16.41h3.56v16.41Z"/>
      <path class="st0" d="M425.85,409.55v4.44h5.19v3.34h-8.74v-7.78h3.56ZM432.51,421.07v-.58h-9.5v-2.25h13.06v5.08h-9.5v.58h9.67v2.25h-13.23v-5.08h9.5ZM436.07,414.96v2.6h-3.56v-8.2h3.56v2.27h1.5v3.34h-1.5Z"/>
      <path class="st0" d="M448.01,409.82v1.75c0,.26-.01.51-.04.76-.03.25-.07.49-.13.74l5.84,2.89-1.75,2.97-5.75-2.93c-.73.74-1.64,1.37-2.73,1.89-1.09.52-2.31.93-3.68,1.23l-1.46-3.12c.92-.22,1.75-.47,2.51-.76.76-.28,1.4-.6,1.94-.96.54-.36.95-.76,1.25-1.21.29-.45.44-.96.44-1.51v-1.73h3.57ZM438.54,420.04h14.86v3.34h-5.65v2.99h-3.56v-2.99h-5.65v-3.34Z"/>
      <path class="st0" d="M465.34,412.23v-.54h-9.28v-2.15h12.83v4.85h-9.28v.54h9.45v2.15h-4.81v.74h5.65v3.14h-14.86v-3.14h5.65v-.74h-4.64v-4.85h9.28ZM465.51,426.15v-1.44h-9.62v-3.12h13.18v4.56h-3.56Z"/>
      <path class="st0" d="M485.2,409.55v3.12h-2.82v.27c0,.14,0,.28-.02.43-.01.14-.03.28-.05.43l3.54,2.17-1.92,2.77-2.87-2.08c-.93,1.09-2.26,1.78-4,2.08l-1.53-2.93c1.08-.23,1.9-.57,2.46-1.01.56-.44.84-1.07.84-1.88v-.25h-2.65v-3.12h9.02ZM490.87,419.46v6.69h-13.57v-6.69h13.57ZM480.85,422.2v1.22h6.46v-1.22h-6.46ZM490.87,409.36v9.42h-3.56v-3.98l-1.72.43v-3.67l1.72-.43v-1.78h3.56Z"/>
      <path class="st0" d="M501.69,409.55v3.12h-2.82v.27c0,.14,0,.28-.02.43-.01.14-.03.28-.05.43l3.54,2.17-1.92,2.77-2.87-2.08c-.93,1.09-2.26,1.78-4,2.08l-1.53-2.93c1.08-.23,1.9-.57,2.46-1.01.56-.44.84-1.07.84-1.88v-.25h-2.65v-3.12h9.02ZM507.36,419.46v6.69h-13.57v-6.69h13.57ZM497.34,422.2v1.22h6.46v-1.22h-6.46ZM507.36,409.36v9.42h-3.56v-3.98l-1.72.43v-3.67l1.72-.43v-1.78h3.56Z"/>
      <path class="st0" d="M514.14,422.43h14.86v3.34h-14.86v-3.34ZM524.61,413.08h-9.62v-3.34h13.18v11.04h-3.56v-7.7Z"/>
      <path class="st0" d="M540.93,422.04v3.32h-10.72v-3.32h10.72ZM530.46,415c0-.89.12-1.7.36-2.41.24-.72.58-1.33,1.01-1.83s.96-.89,1.57-1.16c.61-.27,1.29-.41,2.04-.41s1.42.14,2.04.41c.61.27,1.14.66,1.57,1.16s.77,1.12,1.01,1.83c.24.72.36,1.52.36,2.41s-.12,1.67-.36,2.39-.58,1.32-1.01,1.82c-.44.5-.96.89-1.57,1.16-.61.27-1.29.41-2.04.41s-1.42-.14-2.04-.41c-.61-.27-1.14-.66-1.57-1.16-.44-.5-.77-1.11-1.01-1.82-.24-.71-.36-1.51-.36-2.39ZM535.45,417.46c.44,0,.78-.21,1.04-.63.26-.42.39-1.03.39-1.83s-.13-1.45-.39-1.86c-.26-.41-.6-.62-1.04-.62-.95,0-1.43.83-1.43,2.48,0,.81.12,1.43.37,1.84.25.41.6.62,1.06.62ZM545.15,425.76h-3.56v-16.41h3.56v16.41Z"/>
      <path class="st0" d="M566.45,409.36v8.2h-3.56v-2.71l-1.87.45c-.37.74-.94,1.29-1.72,1.65-.78.36-1.7.54-2.77.54-.72,0-1.38-.08-1.98-.25-.6-.17-1.12-.42-1.55-.77-.43-.34-.76-.77-1-1.27-.24-.5-.36-1.09-.36-1.77s.12-1.26.36-1.77.58-.94,1-1.28.95-.6,1.55-.77c.6-.17,1.26-.25,1.98-.25,1.08,0,2.01.19,2.8.56.79.38,1.36.94,1.72,1.71l1.84-.45v-1.82h3.56ZM562.9,421.07v-.58h-10.02v-2.25h13.57v5.08h-10.01v.58h10.19v2.25h-13.74v-5.08h10.02ZM556.54,414.63c.45,0,.81-.1,1.08-.29.28-.19.41-.5.41-.91s-.14-.7-.41-.91c-.27-.21-.64-.31-1.08-.31s-.79.1-1.07.31c-.27.21-.41.51-.41.91s.14.72.41.91c.28.19.63.29,1.07.29Z"/>
      <path class="st0" d="M577.63,418.08v.76h4.81v4.71h-9.62v.48h9.79v2.11h-13.35v-4.71h9.62v-.48h-9.62v-2.11h4.81v-.76h-5.65v-2.77h14.86v2.77h-5.65ZM578.72,412.89h-9.28v-3.33h12.83v5.14h-3.56v-1.8Z"/>
      <path class="st0" d="M590.43,412.95c0,.32-.02.64-.05.95l3.18,2.46-1.92,2.77-2.61-2.02c-.8.9-1.94,1.58-3.4,2.02l-1.53-2.93c.93-.22,1.66-.59,2.2-1.11.54-.52.81-1.24.81-2.17v-3.57h3.33v3.59ZM597.84,426.15v-2.79h-11.97v-3.32h15.53v6.11h-3.56ZM593.8,419.36v-10.01h3.33v2.91l.91-.35v-2.56h3.35v10.01h-3.35v-3.78l-.91.35v3.43h-3.33Z"/>
      <path class="st0" d="M612.97,417.66c0,1.56-.15,2.87-.44,3.91-.29,1.04-.68,1.87-1.15,2.49-.48.62-1.02,1.06-1.62,1.32-.61.26-1.23.39-1.86.39s-1.27-.13-1.87-.39c-.61-.26-1.15-.7-1.62-1.32-.47-.62-.86-1.45-1.14-2.49-.29-1.04-.43-2.34-.43-3.91s.14-2.87.43-3.91.67-1.87,1.14-2.49c.48-.62,1.02-1.06,1.62-1.32.61-.26,1.23-.39,1.87-.39s1.25.13,1.86.39c.61.26,1.15.7,1.62,1.32.48.62.86,1.45,1.15,2.49s.44,2.34.44,3.91ZM606.37,417.66c0,1,.04,1.8.12,2.42.08.62.19,1.11.33,1.45.14.35.31.59.49.71.18.12.38.18.58.18.19,0,.38-.06.57-.18.18-.12.34-.36.48-.7.14-.34.25-.83.33-1.45s.13-1.45.13-2.45-.04-1.8-.13-2.42c-.09-.62-.2-1.1-.33-1.44s-.3-.58-.48-.7c-.18-.12-.37-.18-.57-.18-.21,0-.4.06-.58.18-.18.12-.35.36-.49.71-.14.35-.26.83-.33,1.45-.08.62-.12,1.43-.12,2.42ZM617.64,425.76h-3.56v-16.41h3.56v16.41Z"/>
      <path class="st0" d="M624.43,418.01h14.86v2.37h-2.22v1.32c.51.22.9.5,1.17.83.26.34.39.75.39,1.24,0,.52-.15.95-.45,1.31-.3.36-.74.64-1.31.85-.58.21-1.29.37-2.13.47s-1.8.15-2.88.15-2.05-.05-2.89-.15-1.54-.25-2.12-.47c-.58-.21-1.02-.5-1.31-.85-.3-.36-.45-.79-.45-1.31s.13-.9.39-1.23c.26-.33.64-.6,1.16-.82v-1.34h-2.22v-2.37ZM638.79,412.32h-13.86v-2.54h5.15v-1.12h3.56v1.12h5.15v2.54ZM625.34,415.18c0-.39.1-.73.3-1.04s.55-.56,1.05-.77,1.17-.36,2.01-.47,1.9-.16,3.17-.16,2.32.05,3.16.16,1.5.26,2,.47c.5.21.85.46,1.05.77.2.3.3.65.3,1.04s-.1.73-.3,1.04c-.2.3-.55.56-1.05.77-.5.21-1.17.36-2,.46s-1.89.16-3.16.16-2.33-.05-3.17-.16-1.51-.26-2.01-.46c-.5-.21-.85-.46-1.05-.77s-.3-.65-.3-1.04ZM631.87,424.25c1.01,0,1.79-.03,2.36-.09.57-.06.85-.19.85-.4s-.28-.34-.85-.4c-.57-.06-1.35-.09-2.36-.09s-1.8.03-2.36.09c-.57.06-.85.19-.85.4s.28.34.85.4c.57.06,1.35.09,2.36.09ZM628.98,415.18c0,.09.04.16.12.22s.23.1.45.13c.22.03.51.05.88.06s.85.02,1.43.02,1.06,0,1.43-.02.66-.03.88-.06c.21-.03.36-.07.45-.13s.13-.13.13-.22-.04-.16-.13-.21-.24-.09-.46-.13c-.22-.03-.51-.05-.88-.07s-.84-.02-1.42-.02-1.06,0-1.43.02-.67.04-.88.07c-.22.03-.37.07-.45.13s-.12.12-.12.21ZM631.87,421.01c.64,0,1.25.02,1.82.06v-.7h-3.66v.7c.56-.04,1.17-.06,1.84-.06Z"/>
      <path class="st0" d="M640.63,414.23c0-.75.11-1.43.34-2.03.23-.6.56-1.11.99-1.53.43-.42.94-.74,1.55-.97.6-.23,1.27-.34,2.02-.34s1.42.11,2.02.34c.6.23,1.12.55,1.55.97.43.42.76.93.99,1.53.23.6.34,1.28.34,2.03s-.11,1.4-.34,2c-.23.59-.56,1.11-.99,1.53s-.94.75-1.55.98-1.27.34-2.02.34-1.42-.11-2.02-.34-1.12-.55-1.55-.98-.76-.94-.99-1.53c-.23-.59-.34-1.26-.34-2ZM651.36,426.15v-2.79h-9.5v-3.32h13.06v6.11h-3.56ZM645.52,415.93c.42,0,.78-.16,1.07-.46.29-.31.43-.72.43-1.24,0-.54-.14-.97-.43-1.27-.29-.3-.64-.46-1.07-.46s-.78.15-1.07.46-.43.73-.43,1.27.14.93.43,1.24c.29.31.64.46,1.07.46ZM654.92,415.54v3.82h-3.56v-10.01h3.56v2.85h1.5v3.34h-1.5Z"/>
      <path class="st0" d="M663.53,410.71h2.9v3.34h-9.36v-3.34h2.9v-1.71h3.56v1.71ZM661.74,425.76c-.62,0-1.19-.1-1.71-.29-.52-.19-.97-.51-1.34-.94-.37-.43-.66-1-.88-1.69s-.32-1.53-.32-2.51.11-1.82.32-2.5c.21-.68.5-1.24.88-1.68.37-.43.82-.75,1.34-.95.52-.2,1.09-.3,1.71-.3s1.19.1,1.71.3c.52.2.97.52,1.34.95.37.43.66.99.88,1.68.21.69.32,1.52.32,2.5s-.11,1.82-.32,2.51-.5,1.25-.88,1.69c-.37.43-.82.75-1.34.94-.52.19-1.09.29-1.71.29ZM661.74,422.43c.33,0,.57-.17.71-.5.14-.33.21-.86.21-1.6s-.07-1.27-.21-1.6c-.14-.33-.38-.5-.71-.5s-.57.17-.71.5c-.14.33-.21.86-.21,1.6s.07,1.27.21,1.6c.14.33.38.5.71.5ZM666.98,425.76v-16.41h3.33v6.21l.91-.35v-5.86h3.35v16.41h-3.35v-6.88l-.91.35v6.54h-3.33Z"/>
      <path class="st0" d="M690.14,425.76h-3.56v-6.21l-2.49.72v-3.57l2.49-.72v-1.18l-2.49.72v-2.44h-2.1v3.63c0,.85-.07,1.67-.21,2.46l3.87,3.39-1.77,2.97-3.37-3.01c-.46.7-1.03,1.31-1.72,1.82-.69.52-1.51.91-2.47,1.18l-1.53-2.93c.65-.21,1.21-.48,1.67-.81.46-.33.83-.74,1.12-1.22.29-.48.51-1.05.64-1.69.14-.64.21-1.37.21-2.2v-3.61h-2.99v-3.34h9.71v1.9l1.43-.41v-1.88h3.56v16.41Z"/>
      <path class="st0" d="M702.33,425.57v-12.49h-5.19v-3.34h8.74v15.83h-3.56ZM710.92,415.04h1.5v3.33h-1.5v7.39h-3.56v-16.41h3.56v5.68Z"/>
      <path class="st0" d="M713.41,416.75h14.86v3.34h-14.86v-3.34ZM717.81,421.01v1.82h9.79v3.32h-13.35v-5.14h3.56ZM717.98,412.5h9.28v3.34h-12.83v-6.28h3.56v2.95Z"/>
      <path class="st0" d="M738.01,409.75v3.34h-4.55v9.15h4.72v3.34h-8.06v-15.83h7.89ZM738.96,425.76v-6.85l-2.59.99v-3.67l2.59-.99v-5.9h3.33v16.41h-3.33ZM746.38,425.76h-3.35v-16.41h3.35v16.41Z"/>
      <path class="st0" d="M748.27,425.88v-3.72h3.52v3.72h-3.52Z"/>
      <path class="st0" d="M753.61,425.88v-3.72h3.52v3.72h-3.52Z"/>
      <path class="st0" d="M758.95,425.88v-3.72h3.52v3.72h-3.52Z"/>
    </g>
  </g>
  <rect class="st8" x="44.2" y="149.18" width="197.39" height="315.64" rx="18.94" ry="18.94"/>
  <rect class="st9" x="45.2" y="149.18" width="197.39" height="315.64" rx="18.94" ry="18.94"/>
  <path class="st21" d="M45.2,399.8h197.39v49.91c0,8.18-6.64,14.82-14.82,14.82H60.02c-8.18,0-14.82-6.64-14.82-14.82v-49.91h0Z"/>
  <path class="st21" d="M45.2,149.6h197.39v49.91c0,8.18-6.64,14.82-14.82,14.82H60.02c-8.18,0-14.82-6.64-14.82-14.82v-49.91h0Z" transform="translate(287.79 363.93) rotate(180)"/>
  <path class="st2" d="M48.34,410.45l18.1,22.92s1.02-9.14-3.98-15.46c-5-6.33-14.12-7.46-14.12-7.46Z"/>
  <path class="st20" d="M52.32,425.91c5,6.33,14.12,7.46,14.12,7.46l-18.1-22.92s-1.02,9.14,3.98,15.46Z"/>
  <path class="st2" d="M84.78,421.91l-15.59,16.6s7.16-.27,11.47-4.85c4.31-4.58,4.12-11.75,4.12-11.75Z"/>
  <path class="st20" d="M73.31,426.76c-4.31,4.58-4.12,11.75-4.12,11.75l15.59-16.6s-7.16.27-11.47,4.85Z"/>
  <path class="st2" d="M81.92,446.58l-15.51-10.16s1.23,5.7,5.51,8.51c4.28,2.81,10,1.65,10,1.65Z"/>
  <path class="st20" d="M76.42,438.07c-4.28-2.81-10-1.65-10-1.65l15.51,10.16s-1.23-5.7-5.51-8.51Z"/>
  <circle class="st19" cx="66.13" cy="429.28" r="12.22"/>
  <path class="st15" d="M68.12,421.36s-2.17-1.4-3.34.13c0,0-1.06,1.07,0,3.21,0,0-1.64,1.49-.93,3.07,0,0,.61,1.57,3.1,1.09,0,0,.86,1.99,2.53,1.86,0,0,1.72.14,2.09-2.5,0,0,2.27-.26,2.56-1.88,0,0,.5-1.9-1.73-2.76,0,0,.32-2.32-.95-3.07,0,0-1.28-1.07-3.31.85Z"/>
  <path class="st0" d="M66.52,423.16h0c-.93.99-1.12,2.46-.46,3.65h0c.65,1.19,2,1.82,3.33,1.57h0c1.33-.25,2.35-1.34,2.52-2.68h0c.17-1.35-.55-2.65-1.77-3.23h0c-1.23-.58-2.69-.3-3.62.69Z"/>
  <circle class="st0" cx="60.13" cy="436.22" r="9.05"/>
  <path class="st24" d="M57.98,430.56s1.61-1.04,2.48.1c0,0,.78.79,0,2.38,0,0,1.22,1.1.69,2.27,0,0-.46,1.16-2.3.8,0,0-.63,1.47-1.87,1.38,0,0-1.27.11-1.54-1.85,0,0-1.68-.19-1.89-1.39,0,0-.37-1.41,1.28-2.05,0,0-.24-1.72.71-2.27,0,0,.95-.79,2.45.63Z"/>
  <path class="st0" d="M59.16,431.89h0c.69.73.83,1.83.34,2.71h0c-.48.88-1.48,1.35-2.47,1.16h0c-.99-.19-1.74-.99-1.87-1.99h0c-.13-1,.4-1.96,1.31-2.39h0c.91-.43,1.99-.22,2.68.51Z"/>
  <path class="st2" d="M202.97,411.33l18.1,22.92s1.02-9.14-3.98-15.46c-5-6.33-14.12-7.46-14.12-7.46Z"/>
  <path class="st20" d="M206.95,426.79c5,6.33,14.12,7.46,14.12,7.46l-18.1-22.92s-1.02,9.14,3.98,15.46Z"/>
  <path class="st2" d="M239.41,422.79l-15.59,16.6s7.16-.27,11.47-4.85c4.31-4.58,4.12-11.75,4.12-11.75Z"/>
  <path class="st20" d="M227.94,427.64c-4.31,4.58-4.12,11.75-4.12,11.75l15.59-16.6s-7.16.27-11.47,4.85Z"/>
  <path class="st2" d="M236.56,447.46l-15.51-10.16s1.23,5.7,5.51,8.51c4.28,2.81,10,1.65,10,1.65Z"/>
  <path class="st20" d="M231.05,438.95c-4.28-2.81-10-1.65-10-1.65l15.51,10.16s-1.23-5.7-5.51-8.51Z"/>
  <circle class="st19" cx="220.76" cy="430.16" r="12.22"/>
  <path class="st15" d="M222.76,422.24s-2.17-1.4-3.34.13c0,0-1.06,1.07,0,3.21,0,0-1.64,1.49-.93,3.07,0,0,.61,1.57,3.1,1.09,0,0,.86,1.99,2.53,1.86,0,0,1.72.14,2.09-2.5,0,0,2.27-.26,2.56-1.88,0,0,.5-1.9-1.73-2.76,0,0,.32-2.32-.95-3.07,0,0-1.28-1.07-3.31.85Z"/>
  <path class="st0" d="M221.16,424.04h0c-.93.99-1.12,2.46-.46,3.65h0c.65,1.19,2,1.82,3.33,1.57h0c1.33-.25,2.35-1.34,2.52-2.68h0c.17-1.35-.55-2.65-1.77-3.23h0c-1.23-.58-2.69-.3-3.62.69Z"/>
  <circle class="st0" cx="214.76" cy="437.1" r="9.05"/>
  <path class="st24" d="M212.61,431.44s1.61-1.04,2.48.1c0,0,.78.79,0,2.38,0,0,1.22,1.1.69,2.27,0,0-.46,1.16-2.3.8,0,0-.63,1.47-1.87,1.38,0,0-1.27.11-1.54-1.85,0,0-1.68-.19-1.89-1.39,0,0-.37-1.41,1.28-2.05,0,0-.24-1.72.71-2.27,0,0,.95-.79,2.45.63Z"/>
  <path class="st0" d="M213.79,432.77h0c.69.73.83,1.83.34,2.71h0c-.48.88-1.48,1.35-2.47,1.16h0c-.99-.19-1.74-.99-1.87-1.99h0c-.13-1,.4-1.96,1.31-2.39h0c.91-.43,1.99-.22,2.68.51Z"/>
  <g class="st25">
    <polygon class="st23" points="120.4 261.97 123.93 253.97 130.29 256.71 135.46 248.98 142.52 252.79 147.12 246.43 151.53 250.45 157.98 246.04 159.94 250.74 166.07 247.02 169.93 254.01 178.25 251.23 179.13 258.47 186.76 257.1 185.98 264.78 194.39 264.78 192.24 273.93 199.88 272.56 197.39 280.88 204.67 283.23 201.93 293.22 210.35 294.78 206.04 302.61 212.99 306.13 208.1 312.3 214.85 316.31 208.1 321.11 213.77 326.15 206.73 330.02 211.42 336.08 205.16 341.47 210.64 346.46 203.89 350.96 207.9 358.89 199.68 360.65 203.11 366.72 197.39 366.72 197.39 374.84 191.16 373.47 190.48 379.64 177.56 377.88 186.17 307.41 166.73 275.7 125.69 268.97 120.4 261.97"/>
    <polygon class="st12" points="120.4 261.97 123.93 253.97 130.29 256.71 135.46 248.98 142.52 252.79 147.12 246.43 151.53 250.45 157.98 246.04 159.94 250.74 166.07 247.02 169.93 254.01 178.25 251.23 179.13 258.47 186.76 257.1 185.98 264.78 194.39 264.78 192.24 273.93 199.88 272.56 197.39 280.88 204.67 283.23 201.93 293.22 210.35 294.78 206.04 302.61 212.99 306.13 208.1 312.3 214.85 316.31 208.1 321.11 213.77 326.15 206.73 330.02 211.42 336.08 205.16 341.47 210.64 346.46 203.89 350.96 207.9 358.89 199.68 360.65 203.11 366.72 197.39 366.72 197.39 374.84 191.16 373.47 190.48 379.64 177.56 377.88 186.17 307.41 166.73 275.7 125.69 268.97 120.4 261.97"/>
    <path class="st17" d="M111.11,382.48s-.15.14-.16.15c-.14.14-.28.29-.42.45-.45.51-.87,1.07-1.23,1.65-.47.77-.86,1.6-1.1,2.48-.28,1-.36,2.04-.21,3.07.07.47.19.93.36,1.38.18.5.48.97.87,1.33.43.39,1.01.6,1.54.81.66.25,1.35.42,2.05.55.65.12,1.32.16,1.98.15.78-.01,1.56-.1,2.32-.26.9-.19,1.78-.47,2.63-.83,1.02-.43,1.99-.95,2.91-1.55,1.12-.72,2.17-1.54,3.17-2.42.25-.22.5-.45.74-.68,0,0-15.46-6.26-15.46-6.26Z"/>
    <path class="st12" d="M111.11,382.48s-.15.14-.16.15c-.14.14-.28.29-.42.45-.45.51-.87,1.07-1.23,1.65-.47.77-.86,1.6-1.1,2.48-.28,1-.36,2.04-.21,3.07.07.47.19.93.36,1.38.18.5.48.97.87,1.33.43.39,1.01.6,1.54.81.66.25,1.35.42,2.05.55.65.12,1.32.16,1.98.15.78-.01,1.56-.1,2.32-.26.9-.19,1.78-.47,2.63-.83,1.02-.43,1.99-.95,2.91-1.55,1.12-.72,2.17-1.54,3.17-2.42.25-.22.5-.45.74-.68,0,0-15.46-6.26-15.46-6.26Z"/>
    <path class="st17" d="M160.33,387.17s.15.45.16.48c.16.42.35.82.57,1.21.31.56.67,1.1,1.07,1.59.5.61,1.06,1.15,1.69,1.62.73.55,1.55.99,2.41,1.3,1.04.38,2.14.57,3.24.63,1.9.09,3.8-.15,5.61-.75,1.15-.39,2.35-.95,3.04-2,.33-.51.56-1.09.64-1.69.11-.79-.02-1.58-.29-2.33-.41-1.1-1.1-2.08-1.87-2.96-.41-.47-.85-.92-1.31-1.35-.26-.24-.52-.47-.79-.7-.15-.12-.29-.25-.44-.37-.05-.04-.4-.38-.44-.36,0,0-13.29,5.68-13.29,5.68Z"/>
    <path class="st12" d="M160.33,387.17s.15.45.16.48c.16.42.35.82.57,1.21.31.56.67,1.1,1.07,1.59.5.61,1.06,1.15,1.69,1.62.73.55,1.55.99,2.41,1.3,1.04.38,2.14.57,3.24.63,1.9.09,3.8-.15,5.61-.75,1.15-.39,2.35-.95,3.04-2,.33-.51.56-1.09.64-1.69.11-.79-.02-1.58-.29-2.33-.41-1.1-1.1-2.08-1.87-2.96-.41-.47-.85-.92-1.31-1.35-.26-.24-.52-.47-.79-.7-.15-.12-.29-.25-.44-.37-.05-.04-.4-.38-.44-.36,0,0-13.29,5.68-13.29,5.68Z"/>
    <path class="st12" d="M130.29,260.31"/>
    <path class="st10" d="M114.33,273.93c-.11.07-2-2.61-2.11-2.77-1.31-1.93-2.48-4.03-3.12-6.29-.68-2.39-.67-5.1,1.08-7.05,1.1-1.22,2.78-1.92,4.4-2.14,1.4-.19,2.83.05,4.1.68,1.9.94,3.34,2.62,4.45,4.39,1.07,1.7,1.88,3.55,2.55,5.44,0,0-11.35,7.73-11.35,7.73Z"/>
    <path class="st12" d="M114.33,273.93c-.11.07-2-2.61-2.11-2.77-1.31-1.93-2.48-4.03-3.12-6.29-.68-2.39-.67-5.1,1.08-7.05,1.1-1.22,2.78-1.92,4.4-2.14,1.4-.19,2.83.05,4.1.68,1.9.94,3.34,2.62,4.45,4.39,1.07,1.7,1.88,3.55,2.55,5.44,0,0-11.35,7.73-11.35,7.73Z"/>
    <line class="st13" x1="115.02" y1="262.48" x2="119.17" y2="268.16"/>
    <path class="st10" d="M157.98,265.79c-.07-.04.27-1.11.29-1.19.28-.96.63-1.91,1.06-2.81,1.15-2.41,2.93-4.65,5.46-5.65,3.6-1.43,8.08-.38,9.92,3.18,1.35,2.61.71,5.6-.57,8.12-1.03,2.03-2.45,3.86-3.98,5.54,0,0-12.19-7.19-12.19-7.19Z"/>
    <path class="st12" d="M157.98,265.79c-.07-.04.27-1.11.29-1.19.28-.96.63-1.91,1.06-2.81,1.15-2.41,2.93-4.65,5.46-5.65,3.6-1.43,8.08-.38,9.92,3.18,1.35,2.61.71,5.6-.57,8.12-1.03,2.03-2.45,3.86-3.98,5.54,0,0-12.19-7.19-12.19-7.19Z"/>
    <line class="st13" x1="168.78" y1="261.97" x2="163.37" y2="268.97"/>
    <path class="st17" d="M140.36,261.38c-.73.09-1.46.19-2.19.3-2.4.37-4.79.84-7.12,1.5-.97.27-1.93.57-2.88.9-1.04.36-2.07.75-3.09,1.17-1.09.45-2.17.94-3.23,1.47-1.13.56-2.23,1.16-3.31,1.81-1.14.68-2.25,1.41-3.32,2.18-1.13.81-2.22,1.67-3.27,2.58-1.1.96-2.16,1.96-3.16,3.02-1.05,1.11-2.05,2.28-2.98,3.5-.98,1.28-1.89,2.62-2.73,4.01-.89,1.47-1.7,2.99-2.42,4.55-.78,1.67-1.46,3.38-2.05,5.13-.64,1.88-1.17,3.8-1.61,5.74-.48,2.11-.84,4.24-1.11,6.38-.19,1.51-.33,3.03-.42,4.55-.24,2.29-.5,4.57-.76,6.86-.54,4.69-1.1,9.38-1.74,14.06-.31,2.23-.63,4.46-.99,6.69-.53,3.2-1.42,6.31-1.67,9.56-.44,5.7.42,11.59,2.47,16.93,1.1,2.86,2.56,5.58,4.36,8.05,2.09,2.87,4.62,5.41,7.44,7.56,3.43,2.62,7.27,4.67,11.28,6.25,5.1,2.02,10.47,3.31,15.89,4.13,3.64.55,7.31.89,10.98,1.06,0,0,56.67,1.13,54.61-52.55,0,0,1.08-44.19-26.72-67.49-.43-.34-.87-.66-1.31-.97-1.16-.83-2.35-1.61-3.57-2.35-1.71-1.05-3.47-2.02-5.28-2.89-2.08-1.01-4.23-1.89-6.44-2.59s-4.65-1.25-7.05-1.44c-.73-.06-1.44-.11-2.16-.07s-1.48.1-2.22.17-1.49.15-2.23.24Z"/>
    <path class="st12" d="M140.36,261.38c-.73.09-1.46.19-2.19.3-2.4.37-4.79.84-7.12,1.5-.97.27-1.93.57-2.88.9-1.04.36-2.07.75-3.09,1.17-1.09.45-2.17.94-3.23,1.47-1.13.56-2.23,1.16-3.31,1.81-1.14.68-2.25,1.41-3.32,2.18-1.13.81-2.22,1.67-3.27,2.58-1.1.96-2.16,1.96-3.16,3.02-1.05,1.11-2.05,2.28-2.98,3.5-.98,1.28-1.89,2.62-2.73,4.01-.89,1.47-1.7,2.99-2.42,4.55-.78,1.67-1.46,3.38-2.05,5.13-.64,1.88-1.17,3.8-1.61,5.74-.48,2.11-.84,4.24-1.11,6.38-.19,1.51-.33,3.03-.42,4.55-.24,2.29-.5,4.57-.76,6.86-.54,4.69-1.1,9.38-1.74,14.06-.31,2.23-.63,4.46-.99,6.69-.53,3.2-1.42,6.31-1.67,9.56-.44,5.7.42,11.59,2.47,16.93,1.1,2.86,2.56,5.58,4.36,8.05,2.09,2.87,4.62,5.41,7.44,7.56,3.43,2.62,7.27,4.67,11.28,6.25,5.1,2.02,10.47,3.31,15.89,4.13,3.64.55,7.31.89,10.98,1.06,0,0,56.67,1.13,54.61-52.55,0,0,1.08-44.19-26.72-67.49-.43-.34-.87-.66-1.31-.97-1.16-.83-2.35-1.61-3.57-2.35-1.71-1.05-3.47-2.02-5.28-2.89-2.08-1.01-4.23-1.89-6.44-2.59s-4.65-1.25-7.05-1.44c-.73-.06-1.44-.11-2.16-.07s-1.48.1-2.22.17-1.49.15-2.23.24Z"/>
    <path class="st5" d="M138.53,312.79c-.24,0-.48-.01-.72-.02-1.82-.02-3.8,0-5.56.51-5.43,1.53-9.35,5.99-11.92,10.81-2.19,4.1-3.58,8.6-4.57,13.13-.82,3.75-1.23,7.57-1.75,11.37-.47,3.44-1.37,6.81-1.74,10.24-.57,5.28-.31,11.28,2.87,15.76.62.88,1.35,1.68,2.18,2.37,4.92,4.15,11.02,7.15,17.36,8.29,9.4,1.68,19.34-1.5,26.2-8.15,3.43-3.33,5.02-8.83,5.88-13.44,1.19-6.35.81-12.91-.79-19.16-.2-.77-.41-1.54-.65-2.31-.25-.84-.36-1.74-.57-2.59-.54-2.16-1.21-4.29-2-6.37-1.04-2.75-2.3-5.43-3.84-7.95-1.66-2.71-3.66-5.25-6.08-7.32-3.98-3.4-9.13-5-14.3-5.18Z"/>
    <path class="st17" d="M118.64,323.61c.08.18.15.37.22.55.19.49.37.99.53,1.5.24.73.44,1.46.62,2.2.21.88.38,1.77.5,2.67.12.96.19,1.92.16,2.89s-.14,1.94-.39,2.87c-.31,1.17-.88,2.39-1.68,3.32-2.47,2.87-6.54.63-8.44-1.67-.66-.79-1.22-1.66-1.72-2.56-.6-1.08-1.11-2.2-1.55-3.35"/>
    <path class="st14" d="M118.64,323.61c.08.18.15.37.22.55.19.49.37.99.53,1.5.24.73.44,1.46.62,2.2.21.88.38,1.77.5,2.67.12.96.19,1.92.16,2.89s-.14,1.94-.39,2.87c-.31,1.17-.88,2.39-1.68,3.32-2.47,2.87-6.54.63-8.44-1.67-.66-.79-1.22-1.66-1.72-2.56-.6-1.08-1.11-2.2-1.55-3.35"/>
    <path class="st17" d="M161.88,323.61c-.12.29-.24.58-.35.87-.28.75-.53,1.51-.74,2.28-.3,1.05-.54,2.12-.71,3.21-.29,1.89-.35,3.89.06,5.79.38,1.78,1.16,3.86,2.89,4.73,2.12,1.07,4.6.07,6.24-1.42.91-.82,1.65-1.81,2.3-2.84.83-1.33,1.49-2.75,2.06-4.21"/>
    <path class="st14" d="M161.88,323.61c-.12.29-.24.58-.35.87-.28.75-.53,1.51-.74,2.28-.3,1.05-.54,2.12-.71,3.21-.29,1.89-.35,3.89.06,5.79.38,1.78,1.16,3.86,2.89,4.73,2.12,1.07,4.6.07,6.24-1.42.91-.82,1.65-1.81,2.3-2.84.83-1.33,1.49-2.75,2.06-4.21"/>
    <path class="st14" d="M145.1,288.28s-4.53-2.58-7.7-.76c0,0-3.16.97-1.05,7.93"/>
    <ellipse class="st16" cx="138.53" cy="288.16" rx="3.06" ry="1.84"/>
    <circle cx="125.69" cy="289.79" r="2.54"/>
    <circle cx="155.43" cy="289.24" r="2.54"/>
    <circle class="st18" cx="115.41" cy="291.78" r="5.39"/>
    <circle class="st18" cx="166.07" cy="291.78" r="5.39"/>
  </g>
  <text class="st7" transform="translate(107.39 390.9)"><tspan x="0" y="0">고사원</tspan></text>
  <text class="st6" transform="translate(92.47 426.19)"><tspan x="0" y="0">블루베리 관리팀</tspan></text>
  <text class="st4" transform="translate(95.89 438.74)"><tspan x="0" y="0">ONIY BIUE COMPANY </tspan></text>
  <rect class="st21" width="800" height="27.86"/>
  <rect class="st21" y="572.14" width="800" height="27.86"/>
</svg>